<svg xmlns="http://www.w3.org/2000/svg" xmlns:xlink="http://www.w3.org/1999/xlink" width="851" zoomAndPan="magnify" viewBox="0 0 638.25 149.999998" height="200" preserveAspectRatio="xMidYMid meet" version="1.0"><defs><g/><clipPath id="cea4b1c793"><path d="M 93 0.0898438 L 545 0.0898438 L 545 149.910156 L 93 149.910156 Z M 93 0.0898438 " clip-rule="nonzero"/></clipPath><clipPath id="7821b5b009"><path d="M 0.0117188 0.0898438 L 135 0.0898438 L 135 149.910156 L 0.0117188 149.910156 Z M 0.0117188 0.0898438 " clip-rule="nonzero"/></clipPath><clipPath id="5a23ec1fae"><rect x="0" width="135" y="0" height="150"/></clipPath><clipPath id="f77fac1df2"><path d="M 154 35 L 451.878906 35 L 451.878906 142 L 154 142 Z M 154 35 " clip-rule="nonzero"/></clipPath><clipPath id="481bee7df6"><rect x="0" width="298" y="0" height="107"/></clipPath><clipPath id="1bf9faa6d0"><rect x="0" width="452" y="0" height="150"/></clipPath></defs><g clip-path="url(#cea4b1c793)"><g transform="matrix(1, 0, 0, 1, 93, -0.000000000000003275)"><g clip-path="url(#1bf9faa6d0)"><g clip-path="url(#7821b5b009)"><g transform="matrix(1, 0, 0, 1, -0.000000000000014211, -0.000000000000003275)"><g clip-path="url(#5a23ec1fae)"><g fill="#000000" fill-opacity="1"><g transform="translate(0.0643092, 121.77254)"><g><path d="M 9.546875 0 L 9.546875 -110.21875 L 32.171875 -110.21875 L 32.171875 -18.9375 L 80.34375 -18.9375 L 80.34375 0 Z M 9.546875 0 "/></g></g></g><g fill="#2563eb" fill-opacity="1"><g transform="translate(85.437335, 121.77254)"><g><path d="M 23.8125 1.40625 C 20.21875 1.40625 17.1875 0.1875 14.71875 -2.25 C 12.25 -4.695312 11.015625 -7.71875 11.015625 -11.3125 C 11.015625 -14.863281 12.25 -17.859375 14.71875 -20.296875 C 17.1875 -22.742188 20.21875 -23.96875 23.8125 -23.96875 C 27.363281 -23.96875 30.375 -22.742188 32.84375 -20.296875 C 35.3125 -17.859375 36.546875 -14.863281 36.546875 -11.3125 C 36.546875 -7.71875 35.3125 -4.695312 32.84375 -2.25 C 30.375 0.1875 27.363281 1.40625 23.8125 1.40625 Z M 23.8125 1.40625 "/></g></g></g></g></g></g><g clip-path="url(#f77fac1df2)"><g transform="matrix(1, 0, 0, 1, 154, 35)"><g clip-path="url(#481bee7df6)"><g fill="#2563eb" fill-opacity="1"><g transform="translate(0.543352, 85.005937)"><g><path d="M 5.484375 0 L 5.484375 -63.390625 L 30.71875 -63.390625 C 35.34375 -63.390625 39.210938 -62.695312 42.328125 -61.3125 C 45.453125 -59.925781 47.800781 -58.003906 49.375 -55.546875 C 50.945312 -53.097656 51.734375 -50.285156 51.734375 -47.109375 C 51.734375 -44.640625 51.242188 -42.46875 50.265625 -40.59375 C 49.285156 -38.71875 47.9375 -37.179688 46.21875 -35.984375 C 44.507812 -34.796875 42.550781 -33.945312 40.34375 -33.4375 L 40.34375 -32.890625 C 42.78125 -32.773438 45.046875 -32.085938 47.140625 -30.828125 C 49.242188 -29.566406 50.941406 -27.8125 52.234375 -25.5625 C 53.523438 -23.320312 54.171875 -20.660156 54.171875 -17.578125 C 54.171875 -14.203125 53.347656 -11.1875 51.703125 -8.53125 C 50.054688 -5.875 47.609375 -3.785156 44.359375 -2.265625 C 41.109375 -0.753906 37.085938 0 32.296875 0 Z M 18.46875 -10.59375 L 29.90625 -10.59375 C 33.625 -10.59375 36.367188 -11.320312 38.140625 -12.78125 C 39.910156 -14.25 40.796875 -16.210938 40.796875 -18.671875 C 40.796875 -20.460938 40.367188 -22.035156 39.515625 -23.390625 C 38.671875 -24.753906 37.453125 -25.816406 35.859375 -26.578125 C 34.273438 -27.347656 32.390625 -27.734375 30.203125 -27.734375 L 18.46875 -27.734375 Z M 18.46875 -36.84375 L 29.015625 -36.84375 C 30.890625 -36.84375 32.550781 -37.171875 34 -37.828125 C 35.445312 -38.484375 36.582031 -39.425781 37.40625 -40.65625 C 38.226562 -41.882812 38.640625 -43.335938 38.640625 -45.015625 C 38.640625 -47.367188 37.816406 -49.269531 36.171875 -50.71875 C 34.523438 -52.164062 32.195312 -52.890625 29.1875 -52.890625 L 18.46875 -52.890625 Z M 18.46875 -36.84375 "/></g></g><g transform="translate(57.859356, 85.005937)"><g><path d="M 26.421875 0.9375 C 21.679688 0.9375 17.570312 -0.078125 14.09375 -2.109375 C 10.625 -4.140625 7.945312 -6.972656 6.0625 -10.609375 C 4.175781 -14.253906 3.234375 -18.488281 3.234375 -23.3125 C 3.234375 -28.195312 4.175781 -32.460938 6.0625 -36.109375 C 7.945312 -39.753906 10.625 -42.585938 14.09375 -44.609375 C 17.570312 -46.640625 21.679688 -47.65625 26.421875 -47.65625 C 31.128906 -47.65625 35.21875 -46.640625 38.6875 -44.609375 C 42.164062 -42.585938 44.847656 -39.753906 46.734375 -36.109375 C 48.617188 -32.460938 49.5625 -28.195312 49.5625 -23.3125 C 49.5625 -18.488281 48.617188 -14.253906 46.734375 -10.609375 C 44.847656 -6.972656 42.164062 -4.140625 38.6875 -2.109375 C 35.21875 -0.078125 31.128906 0.9375 26.421875 0.9375 Z M 26.421875 -9.109375 C 28.628906 -9.109375 30.492188 -9.71875 32.015625 -10.9375 C 33.535156 -12.15625 34.691406 -13.832031 35.484375 -15.96875 C 36.273438 -18.113281 36.671875 -20.578125 36.671875 -23.359375 C 36.671875 -26.171875 36.273438 -28.640625 35.484375 -30.765625 C 34.691406 -32.890625 33.535156 -34.5625 32.015625 -35.78125 C 30.492188 -37 28.628906 -37.609375 26.421875 -37.609375 C 24.210938 -37.609375 22.34375 -37 20.8125 -35.78125 C 19.28125 -34.5625 18.125 -32.890625 17.34375 -30.765625 C 16.5625 -28.640625 16.171875 -26.171875 16.171875 -23.359375 C 16.171875 -20.578125 16.5625 -18.113281 17.34375 -15.96875 C 18.125 -13.832031 19.269531 -12.15625 20.78125 -10.9375 C 22.300781 -9.71875 24.179688 -9.109375 26.421875 -9.109375 Z M 26.421875 -9.109375 "/></g></g><g transform="translate(110.664968, 85.005937)"><g><path d="M 5.234375 0 L 5.234375 -46.96875 L 17.53125 -46.96875 L 17.53125 -38.84375 L 17.953125 -38.84375 C 18.804688 -41.707031 20.222656 -43.867188 22.203125 -45.328125 C 24.191406 -46.796875 26.550781 -47.53125 29.28125 -47.53125 C 29.957031 -47.53125 30.660156 -47.5 31.390625 -47.4375 C 32.128906 -47.382812 32.769531 -47.300781 33.3125 -47.1875 L 33.3125 -35.953125 C 32.769531 -36.117188 31.96875 -36.25 30.90625 -36.34375 C 29.84375 -36.445312 28.816406 -36.5 27.828125 -36.5 C 25.953125 -36.5 24.253906 -36.085938 22.734375 -35.265625 C 21.222656 -34.453125 20.039062 -33.289062 19.1875 -31.78125 C 18.332031 -30.28125 17.90625 -28.507812 17.90625 -26.46875 L 17.90625 0 Z M 5.234375 0 "/></g></g></g><g fill="#2563eb" fill-opacity="1"><g transform="translate(143.769536, 85.005937)"><g><path d="M 26.375 18.71875 C 22.351562 18.71875 18.863281 18.191406 15.90625 17.140625 C 12.957031 16.097656 10.578125 14.644531 8.765625 12.78125 C 6.953125 10.925781 5.734375 8.789062 5.109375 6.375 L 16.296875 4.046875 C 16.691406 4.984375 17.300781 5.863281 18.125 6.6875 C 18.945312 7.507812 20.03125 8.175781 21.375 8.6875 C 22.726562 9.195312 24.382812 9.453125 26.34375 9.453125 C 29.539062 9.453125 32.046875 8.679688 33.859375 7.140625 C 35.679688 5.609375 36.59375 3.253906 36.59375 0.078125 L 36.59375 -8.25 L 35.828125 -8.25 C 35.171875 -6.863281 34.273438 -5.582031 33.140625 -4.40625 C 32.003906 -3.226562 30.570312 -2.285156 28.84375 -1.578125 C 27.113281 -0.867188 25.03125 -0.515625 22.59375 -0.515625 C 18.957031 -0.515625 15.675781 -1.382812 12.75 -3.125 C 9.832031 -4.875 7.515625 -7.460938 5.796875 -10.890625 C 4.085938 -14.328125 3.234375 -18.566406 3.234375 -23.609375 C 3.234375 -28.804688 4.101562 -33.191406 5.84375 -36.765625 C 7.59375 -40.335938 9.925781 -43.046875 12.84375 -44.890625 C 15.769531 -46.734375 19.019531 -47.65625 22.59375 -47.65625 C 25.113281 -47.65625 27.257812 -47.242188 29.03125 -46.421875 C 30.8125 -45.597656 32.289062 -44.546875 33.46875 -43.265625 C 34.644531 -41.992188 35.570312 -40.675781 36.25 -39.3125 L 36.640625 -39.3125 L 36.640625 -46.96875 L 49.1875 -46.96875 L 49.1875 -0.6875 C 49.1875 3.6875 48.207031 7.3125 46.25 10.1875 C 44.289062 13.070312 41.601562 15.210938 38.1875 16.609375 C 34.769531 18.015625 30.832031 18.71875 26.375 18.71875 Z M 26.421875 -10.296875 C 28.609375 -10.296875 30.46875 -10.832031 32 -11.90625 C 33.53125 -12.988281 34.695312 -14.53125 35.5 -16.53125 C 36.3125 -18.53125 36.71875 -20.9375 36.71875 -23.75 C 36.71875 -26.519531 36.3125 -28.929688 35.5 -30.984375 C 34.695312 -33.046875 33.53125 -34.644531 32 -35.78125 C 30.46875 -36.914062 28.609375 -37.484375 26.421875 -37.484375 C 24.234375 -37.484375 22.378906 -36.898438 20.859375 -35.734375 C 19.347656 -34.578125 18.203125 -32.96875 17.421875 -30.90625 C 16.640625 -28.851562 16.25 -26.46875 16.25 -23.75 C 16.25 -20.988281 16.644531 -18.59375 17.4375 -16.5625 C 18.238281 -14.539062 19.394531 -12.988281 20.90625 -11.90625 C 22.425781 -10.832031 24.265625 -10.296875 26.421875 -10.296875 Z M 26.421875 -10.296875 "/></g></g><g transform="translate(198.149531, 85.005937)"><g><path d="M 26.515625 0.9375 C 21.710938 0.9375 17.570312 -0.0507812 14.09375 -2.03125 C 10.625 -4.019531 7.945312 -6.828125 6.0625 -10.453125 C 4.175781 -14.085938 3.234375 -18.363281 3.234375 -23.28125 C 3.234375 -28.125 4.164062 -32.367188 6.03125 -36.015625 C 7.90625 -39.660156 10.546875 -42.507812 13.953125 -44.5625 C 17.359375 -46.625 21.34375 -47.65625 25.90625 -47.65625 C 29.0625 -47.65625 31.984375 -47.144531 34.671875 -46.125 C 37.367188 -45.101562 39.726562 -43.59375 41.75 -41.59375 C 43.78125 -39.59375 45.359375 -37.09375 46.484375 -34.09375 C 47.609375 -31.101562 48.171875 -27.65625 48.171875 -23.75 L 48.171875 -20.203125 L 8.296875 -20.203125 L 8.296875 -28.203125 L 42 -28.203125 L 36.078125 -26.125 C 36.078125 -28.5625 35.691406 -30.671875 34.921875 -32.453125 C 34.160156 -34.242188 33.035156 -35.628906 31.546875 -36.609375 C 30.054688 -37.585938 28.222656 -38.078125 26.046875 -38.078125 C 23.859375 -38.078125 22 -37.582031 20.46875 -36.59375 C 18.9375 -35.601562 17.765625 -34.238281 16.953125 -32.5 C 16.148438 -30.769531 15.75 -28.785156 15.75 -26.546875 L 15.75 -20.9375 C 15.75 -18.300781 16.203125 -16.0625 17.109375 -14.21875 C 18.015625 -12.375 19.296875 -10.972656 20.953125 -10.015625 C 22.609375 -9.066406 24.546875 -8.59375 26.765625 -8.59375 C 28.265625 -8.59375 29.628906 -8.8125 30.859375 -9.25 C 32.097656 -9.6875 33.148438 -10.320312 34.015625 -11.15625 C 34.878906 -12 35.539062 -13.03125 36 -14.25 L 47.53125 -12.59375 C 46.789062 -9.875 45.460938 -7.5 43.546875 -5.46875 C 41.628906 -3.4375 39.234375 -1.859375 36.359375 -0.734375 C 33.484375 0.378906 30.203125 0.9375 26.515625 0.9375 Z M 26.515625 0.9375 "/></g></g><g transform="translate(249.380762, 85.005937)"><g><path d="M 24.046875 0.984375 C 20.210938 0.984375 16.8125 0.425781 13.84375 -0.6875 C 10.882812 -1.8125 8.472656 -3.4375 6.609375 -5.5625 C 4.753906 -7.695312 3.585938 -10.253906 3.109375 -13.234375 L 15.0625 -14.84375 C 15.601562 -12.6875 16.640625 -11.054688 18.171875 -9.953125 C 19.703125 -8.847656 21.742188 -8.296875 24.296875 -8.296875 C 26.703125 -8.296875 28.597656 -8.753906 29.984375 -9.671875 C 31.378906 -10.597656 32.078125 -11.769531 32.078125 -13.1875 C 32.078125 -14.40625 31.570312 -15.40625 30.5625 -16.1875 C 29.5625 -16.96875 28.054688 -17.570312 26.046875 -18 L 17.90625 -19.609375 C 13.375 -20.546875 9.972656 -22.132812 7.703125 -24.375 C 5.429688 -26.613281 4.296875 -29.507812 4.296875 -33.0625 C 4.296875 -36.039062 5.109375 -38.617188 6.734375 -40.796875 C 8.367188 -42.984375 10.664062 -44.671875 13.625 -45.859375 C 16.59375 -47.054688 20.066406 -47.65625 24.046875 -47.65625 C 27.835938 -47.65625 31.125 -47.113281 33.90625 -46.03125 C 36.6875 -44.957031 38.921875 -43.425781 40.609375 -41.4375 C 42.296875 -39.457031 43.367188 -37.117188 43.828125 -34.421875 L 32.46875 -32.84375 C 32.070312 -34.519531 31.179688 -35.890625 29.796875 -36.953125 C 28.421875 -38.015625 26.585938 -38.546875 24.296875 -38.546875 C 22.171875 -38.546875 20.421875 -38.097656 19.046875 -37.203125 C 17.671875 -36.316406 16.984375 -35.160156 16.984375 -33.734375 C 16.984375 -32.546875 17.445312 -31.546875 18.375 -30.734375 C 19.3125 -29.929688 20.84375 -29.316406 22.96875 -28.890625 L 31.484375 -27.1875 C 36.078125 -26.28125 39.488281 -24.773438 41.71875 -22.671875 C 43.945312 -20.578125 45.0625 -17.84375 45.0625 -14.46875 C 45.0625 -11.375 44.164062 -8.671875 42.375 -6.359375 C 40.59375 -4.046875 38.117188 -2.242188 34.953125 -0.953125 C 31.785156 0.335938 28.148438 0.984375 24.046875 0.984375 Z M 24.046875 0.984375 "/></g></g></g></g></g></g></g></g></g></svg>