<svg xmlns="http://www.w3.org/2000/svg" xmlns:xlink="http://www.w3.org/1999/xlink" width="2000" zoomAndPan="magnify" viewBox="0 0 1500 1499.999933" height="2000" preserveAspectRatio="xMidYMid meet" version="1.0"><defs><g/><clipPath id="98ba35e3ad"><path d="M 30.644531 23.871094 L 1469.355469 23.871094 L 1469.355469 1477 L 30.644531 1477 Z M 30.644531 23.871094 " clip-rule="nonzero"/></clipPath><clipPath id="3ec47539c5"><path d="M 101.144531 23.871094 L 1398.855469 23.871094 C 1437.792969 23.871094 1469.355469 55.433594 1469.355469 94.371094 L 1469.355469 1405.628906 C 1469.355469 1444.566406 1437.792969 1476.128906 1398.855469 1476.128906 L 101.144531 1476.128906 C 62.207031 1476.128906 30.644531 1444.566406 30.644531 1405.628906 L 30.644531 94.371094 C 30.644531 55.433594 62.207031 23.871094 101.144531 23.871094 Z M 101.144531 23.871094 " clip-rule="nonzero"/></clipPath><clipPath id="e2bb267df0"><path d="M 0.644531 0.871094 L 1439.355469 0.871094 L 1439.355469 1451 L 0.644531 1451 Z M 0.644531 0.871094 " clip-rule="nonzero"/></clipPath><clipPath id="2c51e293ec"><path d="M 71.144531 0.871094 L 1368.855469 0.871094 C 1407.792969 0.871094 1439.355469 32.433594 1439.355469 71.371094 L 1439.355469 1382.628906 C 1439.355469 1421.566406 1407.792969 1453.128906 1368.855469 1453.128906 L 71.144531 1453.128906 C 32.207031 1453.128906 0.644531 1421.566406 0.644531 1382.628906 L 0.644531 71.371094 C 0.644531 32.433594 32.207031 0.871094 71.144531 0.871094 Z M 71.144531 0.871094 " clip-rule="nonzero"/></clipPath><clipPath id="50f85cdfa3"><rect x="0" width="1440" y="0" height="1454"/></clipPath></defs><g clip-path="url(#98ba35e3ad)"><g clip-path="url(#3ec47539c5)"><g transform="matrix(1, 0, 0, 1, 30, 23)"><g clip-path="url(#50f85cdfa3)"><g clip-path="url(#e2bb267df0)"><g clip-path="url(#2c51e293ec)"><path fill="#0f172a" d="M 0.644531 0.871094 L 1439.355469 0.871094 L 1439.355469 1450.824219 L 0.644531 1450.824219 Z M 0.644531 0.871094 " fill-opacity="1" fill-rule="nonzero"/></g></g></g></g></g></g><g fill="#ffffff" fill-opacity="1"><g transform="translate(126.506257, 1019.081391)"><g><path d="M 46.28125 0 L 46.28125 -534.53125 L 156.046875 -534.53125 L 156.046875 -91.84375 L 389.59375 -91.84375 L 389.59375 0 Z M 46.28125 0 "/></g></g></g><g fill="#2563eb" fill-opacity="1"><g transform="translate(540.494506, 1019.081391)"><g><path d="M 46.28125 0 L 46.28125 -534.53125 L 259.015625 -534.53125 C 297.992188 -534.53125 330.632812 -528.671875 356.9375 -516.953125 C 383.25 -505.234375 403.039062 -489.03125 416.3125 -468.34375 C 429.59375 -447.65625 436.234375 -423.914062 436.234375 -397.125 C 436.234375 -376.320312 432.109375 -358.023438 423.859375 -342.234375 C 415.609375 -326.453125 404.242188 -313.535156 389.765625 -303.484375 C 375.296875 -293.441406 358.738281 -286.269531 340.09375 -281.96875 L 340.09375 -277.3125 C 360.65625 -276.351562 379.785156 -270.550781 397.484375 -259.90625 C 415.179688 -249.257812 429.46875 -234.488281 440.34375 -215.59375 C 451.226562 -196.707031 456.671875 -174.226562 456.671875 -148.15625 C 456.671875 -119.695312 449.734375 -94.285156 435.859375 -71.921875 C 421.992188 -49.566406 401.367188 -31.988281 373.984375 -19.1875 C 346.597656 -6.394531 312.695312 0 272.28125 0 Z M 155.6875 -89.328125 L 252.203125 -89.328125 C 283.523438 -89.328125 306.660156 -95.484375 321.609375 -107.796875 C 336.554688 -120.117188 344.03125 -136.679688 344.03125 -157.484375 C 344.03125 -172.554688 340.441406 -185.832031 333.265625 -197.3125 C 326.097656 -208.789062 315.816406 -217.757812 302.421875 -224.21875 C 289.023438 -230.675781 273.117188 -233.90625 254.703125 -233.90625 L 155.6875 -233.90625 Z M 155.6875 -310.671875 L 244.65625 -310.671875 C 260.445312 -310.671875 274.441406 -313.421875 286.640625 -318.921875 C 298.835938 -324.421875 308.398438 -332.375 315.328125 -342.78125 C 322.265625 -353.1875 325.734375 -365.441406 325.734375 -379.546875 C 325.734375 -399.398438 318.796875 -415.425781 304.921875 -427.625 C 291.054688 -439.820312 271.445312 -445.921875 246.09375 -445.921875 L 155.6875 -445.921875 Z M 155.6875 -310.671875 "/></g></g><g transform="translate(1023.717548, 1019.081391)"><g><path d="M 349.765625 0 L 349.765625 82.515625 L 0 82.515625 L 0 0 Z M 349.765625 0 "/></g></g></g></svg>