<svg xmlns="http://www.w3.org/2000/svg" xmlns:xlink="http://www.w3.org/1999/xlink" width="851" zoomAndPan="magnify" viewBox="0 0 638.25 118.499997" height="158" preserveAspectRatio="xMidYMid meet" version="1.0"><defs><g/></defs><g fill="#2563eb" fill-opacity="1"><g transform="translate(9.276138, 84.393902)"><g><path d="M 5.671875 -16.546875 L 5.671875 -25.171875 L 41.375 -41.046875 L 41.375 -30.953125 L 16.75 -20.921875 L 17.078125 -21.484375 L 17.078125 -20.234375 L 16.75 -20.71875 L 41.375 -10.6875 L 41.375 -0.671875 Z M 5.671875 -16.546875 "/></g></g></g><g fill="#000000" fill-opacity="1"><g transform="translate(57.622921, 84.393902)"><g><path d="M 4.515625 0 L 4.515625 -52.234375 L 15.25 -52.234375 L 15.25 -8.96875 L 38.078125 -8.96875 L 38.078125 0 Z M 4.515625 0 "/></g></g></g><g fill="#000000" fill-opacity="1"><g transform="translate(98.075371, 84.393902)"><g><path d="M 15.3125 0.734375 C 12.84375 0.734375 10.625 0.300781 8.65625 -0.5625 C 6.695312 -1.425781 5.15625 -2.71875 4.03125 -4.4375 C 2.90625 -6.15625 2.34375 -8.285156 2.34375 -10.828125 C 2.34375 -13.003906 2.738281 -14.816406 3.53125 -16.265625 C 4.332031 -17.710938 5.421875 -18.878906 6.796875 -19.765625 C 8.179688 -20.660156 9.753906 -21.332031 11.515625 -21.78125 C 13.273438 -22.238281 15.128906 -22.5625 17.078125 -22.75 C 19.335938 -22.988281 21.15625 -23.207031 22.53125 -23.40625 C 23.914062 -23.601562 24.921875 -23.910156 25.546875 -24.328125 C 26.179688 -24.742188 26.5 -25.375 26.5 -26.21875 L 26.5 -26.390625 C 26.5 -27.472656 26.257812 -28.394531 25.78125 -29.15625 C 25.300781 -29.914062 24.601562 -30.5 23.6875 -30.90625 C 22.78125 -31.3125 21.675781 -31.515625 20.375 -31.515625 C 19.039062 -31.515625 17.875 -31.3125 16.875 -30.90625 C 15.882812 -30.5 15.078125 -29.945312 14.453125 -29.25 C 13.835938 -28.5625 13.398438 -27.785156 13.140625 -26.921875 L 3.5 -28.15625 C 4.039062 -30.488281 5.070312 -32.484375 6.59375 -34.140625 C 8.113281 -35.804688 10.050781 -37.078125 12.40625 -37.953125 C 14.769531 -38.828125 17.457031 -39.265625 20.46875 -39.265625 C 22.664062 -39.265625 24.75 -39.003906 26.71875 -38.484375 C 28.695312 -37.972656 30.457031 -37.179688 32 -36.109375 C 33.550781 -35.035156 34.765625 -33.671875 35.640625 -32.015625 C 36.515625 -30.367188 36.953125 -28.40625 36.953125 -26.125 L 36.953125 0 L 26.953125 0 L 26.953125 -5.40625 L 26.640625 -5.40625 C 26.015625 -4.1875 25.179688 -3.113281 24.140625 -2.1875 C 23.097656 -1.269531 21.851562 -0.550781 20.40625 -0.03125 C 18.957031 0.476562 17.257812 0.734375 15.3125 0.734375 Z M 18.265625 -6.59375 C 19.921875 -6.59375 21.367188 -6.914062 22.609375 -7.5625 C 23.847656 -8.21875 24.816406 -9.09375 25.515625 -10.1875 C 26.222656 -11.289062 26.578125 -12.535156 26.578125 -13.921875 L 26.578125 -18.015625 C 26.242188 -17.828125 25.785156 -17.640625 25.203125 -17.453125 C 24.617188 -17.265625 23.953125 -17.097656 23.203125 -16.953125 C 22.460938 -16.816406 21.710938 -16.691406 20.953125 -16.578125 C 20.191406 -16.460938 19.492188 -16.359375 18.859375 -16.265625 C 17.597656 -16.078125 16.472656 -15.78125 15.484375 -15.375 C 14.503906 -14.96875 13.742188 -14.414062 13.203125 -13.71875 C 12.671875 -13.03125 12.40625 -12.171875 12.40625 -11.140625 C 12.40625 -10.160156 12.65625 -9.332031 13.15625 -8.65625 C 13.664062 -7.976562 14.359375 -7.460938 15.234375 -7.109375 C 16.109375 -6.765625 17.117188 -6.59375 18.265625 -6.59375 Z M 18.265625 -6.59375 "/></g></g></g><g fill="#000000" fill-opacity="1"><g transform="translate(139.299011, 84.393902)"><g><path d="M 4.3125 0 L 4.3125 -38.703125 L 14.4375 -38.703125 L 14.4375 -32 L 14.796875 -32 C 15.492188 -34.363281 16.660156 -36.144531 18.296875 -37.34375 C 19.929688 -38.550781 21.875 -39.15625 24.125 -39.15625 C 24.675781 -39.15625 25.253906 -39.128906 25.859375 -39.078125 C 26.472656 -39.035156 27.003906 -38.96875 27.453125 -38.875 L 27.453125 -29.625 C 27.003906 -29.757812 26.34375 -29.867188 25.46875 -29.953125 C 24.59375 -30.035156 23.742188 -30.078125 22.921875 -30.078125 C 21.378906 -30.078125 19.984375 -29.738281 18.734375 -29.0625 C 17.484375 -28.382812 16.507812 -27.425781 15.8125 -26.1875 C 15.113281 -24.945312 14.765625 -23.488281 14.765625 -21.8125 L 14.765625 0 Z M 4.3125 0 "/></g></g></g><g fill="#000000" fill-opacity="1"><g transform="translate(168.358931, 84.393902)"><g><path d="M 4.3125 0 L 4.3125 -38.703125 L 14.765625 -38.703125 L 14.765625 0 Z M 9.53125 -43.71875 C 7.925781 -43.71875 6.554688 -44.242188 5.421875 -45.296875 C 4.285156 -46.347656 3.71875 -47.632812 3.71875 -49.15625 C 3.71875 -50.664062 4.285156 -51.945312 5.421875 -53 C 6.554688 -54.050781 7.925781 -54.578125 9.53125 -54.578125 C 11.144531 -54.578125 12.515625 -54.050781 13.640625 -53 C 14.765625 -51.945312 15.328125 -50.664062 15.328125 -49.15625 C 15.328125 -47.632812 14.765625 -46.347656 13.640625 -45.296875 C 12.515625 -44.242188 11.144531 -43.71875 9.53125 -43.71875 Z M 9.53125 -43.71875 "/></g></g></g><g fill="#000000" fill-opacity="1"><g transform="translate(187.42837, 84.393902)"><g><path d="M 19.8125 0.8125 C 16.65625 0.8125 13.851562 0.347656 11.40625 -0.578125 C 8.96875 -1.503906 6.984375 -2.84375 5.453125 -4.59375 C 3.921875 -6.34375 2.957031 -8.445312 2.5625 -10.90625 L 12.40625 -12.234375 C 12.851562 -10.460938 13.707031 -9.117188 14.96875 -8.203125 C 16.226562 -7.296875 17.910156 -6.84375 20.015625 -6.84375 C 22.003906 -6.84375 23.570312 -7.21875 24.71875 -7.96875 C 25.863281 -8.726562 26.4375 -9.695312 26.4375 -10.875 C 26.4375 -11.875 26.019531 -12.691406 25.1875 -13.328125 C 24.351562 -13.972656 23.109375 -14.472656 21.453125 -14.828125 L 14.765625 -16.15625 C 11.023438 -16.925781 8.21875 -18.234375 6.34375 -20.078125 C 4.476562 -21.929688 3.546875 -24.316406 3.546875 -27.234375 C 3.546875 -29.691406 4.21875 -31.816406 5.5625 -33.609375 C 6.90625 -35.410156 8.796875 -36.800781 11.234375 -37.78125 C 13.679688 -38.769531 16.539062 -39.265625 19.8125 -39.265625 C 22.9375 -39.265625 25.644531 -38.816406 27.9375 -37.921875 C 30.226562 -37.035156 32.066406 -35.773438 33.453125 -34.140625 C 34.847656 -32.503906 35.734375 -30.578125 36.109375 -28.359375 L 26.75 -27.0625 C 26.414062 -28.4375 25.679688 -29.5625 24.546875 -30.4375 C 23.421875 -31.320312 21.910156 -31.765625 20.015625 -31.765625 C 18.265625 -31.765625 16.820312 -31.394531 15.6875 -30.65625 C 14.550781 -29.914062 13.984375 -28.960938 13.984375 -27.796875 C 13.984375 -26.816406 14.367188 -25.992188 15.140625 -25.328125 C 15.910156 -24.660156 17.175781 -24.148438 18.9375 -23.796875 L 25.9375 -22.40625 C 29.726562 -21.65625 32.539062 -20.414062 34.375 -18.6875 C 36.207031 -16.957031 37.125 -14.703125 37.125 -11.921875 C 37.125 -9.367188 36.382812 -7.140625 34.90625 -5.234375 C 33.4375 -3.335938 31.398438 -1.851562 28.796875 -0.78125 C 26.191406 0.28125 23.195312 0.8125 19.8125 0.8125 Z M 19.8125 0.8125 "/></g></g></g><g fill="#000000" fill-opacity="1"><g transform="translate(227.004467, 84.393902)"><g><path d="M 19.8125 0.8125 C 16.65625 0.8125 13.851562 0.347656 11.40625 -0.578125 C 8.96875 -1.503906 6.984375 -2.84375 5.453125 -4.59375 C 3.921875 -6.34375 2.957031 -8.445312 2.5625 -10.90625 L 12.40625 -12.234375 C 12.851562 -10.460938 13.707031 -9.117188 14.96875 -8.203125 C 16.226562 -7.296875 17.910156 -6.84375 20.015625 -6.84375 C 22.003906 -6.84375 23.570312 -7.21875 24.71875 -7.96875 C 25.863281 -8.726562 26.4375 -9.695312 26.4375 -10.875 C 26.4375 -11.875 26.019531 -12.691406 25.1875 -13.328125 C 24.351562 -13.972656 23.109375 -14.472656 21.453125 -14.828125 L 14.765625 -16.15625 C 11.023438 -16.925781 8.21875 -18.234375 6.34375 -20.078125 C 4.476562 -21.929688 3.546875 -24.316406 3.546875 -27.234375 C 3.546875 -29.691406 4.21875 -31.816406 5.5625 -33.609375 C 6.90625 -35.410156 8.796875 -36.800781 11.234375 -37.78125 C 13.679688 -38.769531 16.539062 -39.265625 19.8125 -39.265625 C 22.9375 -39.265625 25.644531 -38.816406 27.9375 -37.921875 C 30.226562 -37.035156 32.066406 -35.773438 33.453125 -34.140625 C 34.847656 -32.503906 35.734375 -30.578125 36.109375 -28.359375 L 26.75 -27.0625 C 26.414062 -28.4375 25.679688 -29.5625 24.546875 -30.4375 C 23.421875 -31.320312 21.910156 -31.765625 20.015625 -31.765625 C 18.265625 -31.765625 16.820312 -31.394531 15.6875 -30.65625 C 14.550781 -29.914062 13.984375 -28.960938 13.984375 -27.796875 C 13.984375 -26.816406 14.367188 -25.992188 15.140625 -25.328125 C 15.910156 -24.660156 17.175781 -24.148438 18.9375 -23.796875 L 25.9375 -22.40625 C 29.726562 -21.65625 32.539062 -20.414062 34.375 -18.6875 C 36.207031 -16.957031 37.125 -14.703125 37.125 -11.921875 C 37.125 -9.367188 36.382812 -7.140625 34.90625 -5.234375 C 33.4375 -3.335938 31.398438 -1.851562 28.796875 -0.78125 C 26.191406 0.28125 23.195312 0.8125 19.8125 0.8125 Z M 19.8125 0.8125 "/></g></g></g><g fill="#000000" fill-opacity="1"><g transform="translate(266.580553, 84.393902)"><g><path d="M 15.3125 0.734375 C 12.84375 0.734375 10.625 0.300781 8.65625 -0.5625 C 6.695312 -1.425781 5.15625 -2.71875 4.03125 -4.4375 C 2.90625 -6.15625 2.34375 -8.285156 2.34375 -10.828125 C 2.34375 -13.003906 2.738281 -14.816406 3.53125 -16.265625 C 4.332031 -17.710938 5.421875 -18.878906 6.796875 -19.765625 C 8.179688 -20.660156 9.753906 -21.332031 11.515625 -21.78125 C 13.273438 -22.238281 15.128906 -22.5625 17.078125 -22.75 C 19.335938 -22.988281 21.15625 -23.207031 22.53125 -23.40625 C 23.914062 -23.601562 24.921875 -23.910156 25.546875 -24.328125 C 26.179688 -24.742188 26.5 -25.375 26.5 -26.21875 L 26.5 -26.390625 C 26.5 -27.472656 26.257812 -28.394531 25.78125 -29.15625 C 25.300781 -29.914062 24.601562 -30.5 23.6875 -30.90625 C 22.78125 -31.3125 21.675781 -31.515625 20.375 -31.515625 C 19.039062 -31.515625 17.875 -31.3125 16.875 -30.90625 C 15.882812 -30.5 15.078125 -29.945312 14.453125 -29.25 C 13.835938 -28.5625 13.398438 -27.785156 13.140625 -26.921875 L 3.5 -28.15625 C 4.039062 -30.488281 5.070312 -32.484375 6.59375 -34.140625 C 8.113281 -35.804688 10.050781 -37.078125 12.40625 -37.953125 C 14.769531 -38.828125 17.457031 -39.265625 20.46875 -39.265625 C 22.664062 -39.265625 24.75 -39.003906 26.71875 -38.484375 C 28.695312 -37.972656 30.457031 -37.179688 32 -36.109375 C 33.550781 -35.035156 34.765625 -33.671875 35.640625 -32.015625 C 36.515625 -30.367188 36.953125 -28.40625 36.953125 -26.125 L 36.953125 0 L 26.953125 0 L 26.953125 -5.40625 L 26.640625 -5.40625 C 26.015625 -4.1875 25.179688 -3.113281 24.140625 -2.1875 C 23.097656 -1.269531 21.851562 -0.550781 20.40625 -0.03125 C 18.957031 0.476562 17.257812 0.734375 15.3125 0.734375 Z M 18.265625 -6.59375 C 19.921875 -6.59375 21.367188 -6.914062 22.609375 -7.5625 C 23.847656 -8.21875 24.816406 -9.09375 25.515625 -10.1875 C 26.222656 -11.289062 26.578125 -12.535156 26.578125 -13.921875 L 26.578125 -18.015625 C 26.242188 -17.828125 25.785156 -17.640625 25.203125 -17.453125 C 24.617188 -17.265625 23.953125 -17.097656 23.203125 -16.953125 C 22.460938 -16.816406 21.710938 -16.691406 20.953125 -16.578125 C 20.191406 -16.460938 19.492188 -16.359375 18.859375 -16.265625 C 17.597656 -16.078125 16.472656 -15.78125 15.484375 -15.375 C 14.503906 -14.96875 13.742188 -14.414062 13.203125 -13.71875 C 12.671875 -13.03125 12.40625 -12.171875 12.40625 -11.140625 C 12.40625 -10.160156 12.65625 -9.332031 13.15625 -8.65625 C 13.664062 -7.976562 14.359375 -7.460938 15.234375 -7.109375 C 16.109375 -6.765625 17.117188 -6.59375 18.265625 -6.59375 Z M 18.265625 -6.59375 "/></g></g></g><g fill="#000000" fill-opacity="1"><g transform="translate(307.804193, 84.393902)"><g><path d="M 4.515625 0 L 4.515625 -52.234375 L 25.3125 -52.234375 C 29.125 -52.234375 32.3125 -51.660156 34.875 -50.515625 C 37.445312 -49.367188 39.378906 -47.785156 40.671875 -45.765625 C 41.972656 -43.742188 42.625 -41.425781 42.625 -38.8125 C 42.625 -36.78125 42.21875 -34.988281 41.40625 -33.4375 C 40.601562 -31.894531 39.492188 -30.632812 38.078125 -29.65625 C 36.671875 -28.675781 35.054688 -27.976562 33.234375 -27.5625 L 33.234375 -27.09375 C 35.242188 -27 37.113281 -26.429688 38.84375 -25.390625 C 40.570312 -24.359375 41.96875 -22.914062 43.03125 -21.0625 C 44.09375 -19.21875 44.625 -17.023438 44.625 -14.484375 C 44.625 -11.703125 43.945312 -9.21875 42.59375 -7.03125 C 41.238281 -4.84375 39.222656 -3.125 36.546875 -1.875 C 33.867188 -0.625 30.554688 0 26.609375 0 Z M 15.21875 -8.734375 L 24.640625 -8.734375 C 27.703125 -8.734375 29.960938 -9.332031 31.421875 -10.53125 C 32.890625 -11.738281 33.625 -13.359375 33.625 -15.390625 C 33.625 -16.859375 33.269531 -18.15625 32.5625 -19.28125 C 31.863281 -20.40625 30.859375 -21.28125 29.546875 -21.90625 C 28.242188 -22.539062 26.691406 -22.859375 24.890625 -22.859375 L 15.21875 -22.859375 Z M 15.21875 -30.359375 L 23.90625 -30.359375 C 25.445312 -30.359375 26.8125 -30.625 28 -31.15625 C 29.195312 -31.695312 30.132812 -32.472656 30.8125 -33.484375 C 31.488281 -34.503906 31.828125 -35.707031 31.828125 -37.09375 C 31.828125 -39.03125 31.148438 -40.59375 29.796875 -41.78125 C 28.441406 -42.976562 26.523438 -43.578125 24.046875 -43.578125 L 15.21875 -43.578125 Z M 15.21875 -30.359375 "/></g></g></g><g fill="#000000" fill-opacity="1"><g transform="translate(355.022087, 84.393902)"><g><path d="M 21.765625 0.765625 C 17.867188 0.765625 14.488281 -0.0664062 11.625 -1.734375 C 8.757812 -3.398438 6.550781 -5.734375 5 -8.734375 C 3.445312 -11.742188 2.671875 -15.238281 2.671875 -19.21875 C 2.671875 -23.226562 3.445312 -26.734375 5 -29.734375 C 6.550781 -32.742188 8.757812 -35.082031 11.625 -36.75 C 14.488281 -38.425781 17.867188 -39.265625 21.765625 -39.265625 C 25.648438 -39.265625 29.019531 -38.425781 31.875 -36.75 C 34.738281 -35.082031 36.945312 -32.742188 38.5 -29.734375 C 40.0625 -26.734375 40.84375 -23.226562 40.84375 -19.21875 C 40.84375 -15.238281 40.0625 -11.742188 38.5 -8.734375 C 36.945312 -5.734375 34.738281 -3.398438 31.875 -1.734375 C 29.019531 -0.0664062 25.648438 0.765625 21.765625 0.765625 Z M 21.765625 -7.5 C 23.585938 -7.5 25.125 -8 26.375 -9 C 27.625 -10.007812 28.578125 -11.394531 29.234375 -13.15625 C 29.890625 -14.925781 30.21875 -16.957031 30.21875 -19.25 C 30.21875 -21.5625 29.890625 -23.59375 29.234375 -25.34375 C 28.578125 -27.09375 27.625 -28.46875 26.375 -29.46875 C 25.125 -30.476562 23.585938 -30.984375 21.765625 -30.984375 C 19.941406 -30.984375 18.398438 -30.476562 17.140625 -29.46875 C 15.878906 -28.46875 14.925781 -27.09375 14.28125 -25.34375 C 13.644531 -23.59375 13.328125 -21.5625 13.328125 -19.25 C 13.328125 -16.957031 13.644531 -14.925781 14.28125 -13.15625 C 14.925781 -11.394531 15.875 -10.007812 17.125 -9 C 18.375 -8 19.921875 -7.5 21.765625 -7.5 Z M 21.765625 -7.5 "/></g></g></g><g fill="#000000" fill-opacity="1"><g transform="translate(398.524246, 84.393902)"><g><path d="M 4.3125 0 L 4.3125 -38.703125 L 14.4375 -38.703125 L 14.4375 -32 L 14.796875 -32 C 15.492188 -34.363281 16.660156 -36.144531 18.296875 -37.34375 C 19.929688 -38.550781 21.875 -39.15625 24.125 -39.15625 C 24.675781 -39.15625 25.253906 -39.128906 25.859375 -39.078125 C 26.472656 -39.035156 27.003906 -38.96875 27.453125 -38.875 L 27.453125 -29.625 C 27.003906 -29.757812 26.34375 -29.867188 25.46875 -29.953125 C 24.59375 -30.035156 23.742188 -30.078125 22.921875 -30.078125 C 21.378906 -30.078125 19.984375 -29.738281 18.734375 -29.0625 C 17.484375 -28.382812 16.507812 -27.425781 15.8125 -26.1875 C 15.113281 -24.945312 14.765625 -23.488281 14.765625 -21.8125 L 14.765625 0 Z M 4.3125 0 "/></g></g></g><g fill="#000000" fill-opacity="1"><g transform="translate(425.79612, 84.393902)"><g><path d="M 21.734375 15.421875 C 18.410156 15.421875 15.535156 14.988281 13.109375 14.125 C 10.679688 13.257812 8.71875 12.0625 7.21875 10.53125 C 5.726562 9 4.722656 7.242188 4.203125 5.265625 L 13.421875 3.328125 C 13.753906 4.097656 14.257812 4.820312 14.9375 5.5 C 15.613281 6.175781 16.503906 6.722656 17.609375 7.140625 C 18.722656 7.566406 20.085938 7.78125 21.703125 7.78125 C 24.335938 7.78125 26.40625 7.148438 27.90625 5.890625 C 29.40625 4.628906 30.15625 2.6875 30.15625 0.0625 L 30.15625 -6.796875 L 29.515625 -6.796875 C 28.984375 -5.648438 28.25 -4.59375 27.3125 -3.625 C 26.375 -2.65625 25.191406 -1.878906 23.765625 -1.296875 C 22.335938 -0.710938 20.617188 -0.421875 18.609375 -0.421875 C 15.617188 -0.421875 12.921875 -1.140625 10.515625 -2.578125 C 8.109375 -4.015625 6.195312 -6.144531 4.78125 -8.96875 C 3.375 -11.800781 2.671875 -15.296875 2.671875 -19.453125 C 2.671875 -23.734375 3.382812 -27.34375 4.8125 -30.28125 C 6.25 -33.226562 8.171875 -35.460938 10.578125 -36.984375 C 12.992188 -38.503906 15.671875 -39.265625 18.609375 -39.265625 C 20.691406 -39.265625 22.460938 -38.925781 23.921875 -38.25 C 25.390625 -37.570312 26.609375 -36.707031 27.578125 -35.65625 C 28.546875 -34.601562 29.3125 -33.515625 29.875 -32.390625 L 30.1875 -32.390625 L 30.1875 -38.703125 L 40.53125 -38.703125 L 40.53125 -0.5625 C 40.53125 3.039062 39.722656 6.023438 38.109375 8.390625 C 36.492188 10.765625 34.273438 12.53125 31.453125 13.6875 C 28.640625 14.84375 25.398438 15.421875 21.734375 15.421875 Z M 21.765625 -8.484375 C 23.566406 -8.484375 25.097656 -8.925781 26.359375 -9.8125 C 27.617188 -10.695312 28.582031 -11.960938 29.25 -13.609375 C 29.914062 -15.265625 30.25 -17.25 30.25 -19.5625 C 30.25 -21.851562 29.914062 -23.84375 29.25 -25.53125 C 28.582031 -27.226562 27.617188 -28.546875 26.359375 -29.484375 C 25.097656 -30.421875 23.566406 -30.890625 21.765625 -30.890625 C 19.972656 -30.890625 18.445312 -30.410156 17.1875 -29.453125 C 15.9375 -28.492188 14.988281 -27.164062 14.34375 -25.46875 C 13.707031 -23.769531 13.390625 -21.800781 13.390625 -19.5625 C 13.390625 -17.289062 13.71875 -15.316406 14.375 -13.640625 C 15.03125 -11.972656 15.984375 -10.695312 17.234375 -9.8125 C 18.484375 -8.925781 19.992188 -8.484375 21.765625 -8.484375 Z M 21.765625 -8.484375 "/></g></g></g><g fill="#000000" fill-opacity="1"><g transform="translate(470.595281, 84.393902)"><g><path d="M 21.84375 0.765625 C 17.894531 0.765625 14.488281 -0.0507812 11.625 -1.6875 C 8.757812 -3.320312 6.550781 -5.632812 5 -8.625 C 3.445312 -11.613281 2.671875 -15.128906 2.671875 -19.171875 C 2.671875 -23.171875 3.441406 -26.671875 4.984375 -29.671875 C 6.523438 -32.679688 8.695312 -35.03125 11.5 -36.71875 C 14.300781 -38.414062 17.582031 -39.265625 21.34375 -39.265625 C 23.9375 -39.265625 26.34375 -38.84375 28.5625 -38 C 30.789062 -37.15625 32.738281 -35.910156 34.40625 -34.265625 C 36.082031 -32.617188 37.378906 -30.5625 38.296875 -28.09375 C 39.222656 -25.632812 39.6875 -22.789062 39.6875 -19.5625 L 39.6875 -16.65625 L 6.84375 -16.65625 L 6.84375 -23.25 L 34.59375 -23.25 L 29.734375 -21.53125 C 29.734375 -23.539062 29.414062 -25.28125 28.78125 -26.75 C 28.144531 -28.21875 27.210938 -29.351562 25.984375 -30.15625 C 24.765625 -30.96875 23.253906 -31.375 21.453125 -31.375 C 19.648438 -31.375 18.117188 -30.960938 16.859375 -30.140625 C 15.597656 -29.328125 14.632812 -28.207031 13.96875 -26.78125 C 13.300781 -25.351562 12.96875 -23.71875 12.96875 -21.875 L 12.96875 -17.25 C 12.96875 -15.070312 13.34375 -13.222656 14.09375 -11.703125 C 14.84375 -10.191406 15.898438 -9.039062 17.265625 -8.25 C 18.628906 -7.46875 20.222656 -7.078125 22.046875 -7.078125 C 23.285156 -7.078125 24.410156 -7.257812 25.421875 -7.625 C 26.441406 -7.988281 27.304688 -8.515625 28.015625 -9.203125 C 28.734375 -9.890625 29.28125 -10.738281 29.65625 -11.75 L 39.15625 -10.375 C 38.550781 -8.132812 37.457031 -6.175781 35.875 -4.5 C 34.300781 -2.832031 32.328125 -1.535156 29.953125 -0.609375 C 27.578125 0.304688 24.875 0.765625 21.84375 0.765625 Z M 21.84375 0.765625 "/></g></g></g><g fill="#000000" fill-opacity="1"><g transform="translate(512.800437, 84.393902)"><g><path d="M 19.8125 0.8125 C 16.65625 0.8125 13.851562 0.347656 11.40625 -0.578125 C 8.96875 -1.503906 6.984375 -2.84375 5.453125 -4.59375 C 3.921875 -6.34375 2.957031 -8.445312 2.5625 -10.90625 L 12.40625 -12.234375 C 12.851562 -10.460938 13.707031 -9.117188 14.96875 -8.203125 C 16.226562 -7.296875 17.910156 -6.84375 20.015625 -6.84375 C 22.003906 -6.84375 23.570312 -7.21875 24.71875 -7.96875 C 25.863281 -8.726562 26.4375 -9.695312 26.4375 -10.875 C 26.4375 -11.875 26.019531 -12.691406 25.1875 -13.328125 C 24.351562 -13.972656 23.109375 -14.472656 21.453125 -14.828125 L 14.765625 -16.15625 C 11.023438 -16.925781 8.21875 -18.234375 6.34375 -20.078125 C 4.476562 -21.929688 3.546875 -24.316406 3.546875 -27.234375 C 3.546875 -29.691406 4.21875 -31.816406 5.5625 -33.609375 C 6.90625 -35.410156 8.796875 -36.800781 11.234375 -37.78125 C 13.679688 -38.769531 16.539062 -39.265625 19.8125 -39.265625 C 22.9375 -39.265625 25.644531 -38.816406 27.9375 -37.921875 C 30.226562 -37.035156 32.066406 -35.773438 33.453125 -34.140625 C 34.847656 -32.503906 35.734375 -30.578125 36.109375 -28.359375 L 26.75 -27.0625 C 26.414062 -28.4375 25.679688 -29.5625 24.546875 -30.4375 C 23.421875 -31.320312 21.910156 -31.765625 20.015625 -31.765625 C 18.265625 -31.765625 16.820312 -31.394531 15.6875 -30.65625 C 14.550781 -29.914062 13.984375 -28.960938 13.984375 -27.796875 C 13.984375 -26.816406 14.367188 -25.992188 15.140625 -25.328125 C 15.910156 -24.660156 17.175781 -24.148438 18.9375 -23.796875 L 25.9375 -22.40625 C 29.726562 -21.65625 32.539062 -20.414062 34.375 -18.6875 C 36.207031 -16.957031 37.125 -14.703125 37.125 -11.921875 C 37.125 -9.367188 36.382812 -7.140625 34.90625 -5.234375 C 33.4375 -3.335938 31.398438 -1.851562 28.796875 -0.78125 C 26.191406 0.28125 23.195312 0.8125 19.8125 0.8125 Z M 19.8125 0.8125 "/></g></g></g><g fill="#2563eb" fill-opacity="1"><g transform="translate(552.386841, 84.393902)"><g><path d="M 26.71875 -54.6875 L 9.890625 7.859375 L 0.765625 7.859375 L 17.59375 -54.6875 Z M 26.71875 -54.6875 "/></g></g></g><g fill="#2563eb" fill-opacity="1"><g transform="translate(579.869268, 84.393902)"><g><path d="M 42.671875 -16.546875 L 6.96875 -0.671875 L 6.96875 -10.6875 L 31.65625 -20.71875 L 31.3125 -20.234375 L 31.3125 -21.484375 L 31.65625 -20.921875 L 6.96875 -30.953125 L 6.96875 -41.046875 L 42.671875 -25.171875 Z M 42.671875 -16.546875 "/></g></g></g></svg>