<svg xmlns="http://www.w3.org/2000/svg" xmlns:xlink="http://www.w3.org/1999/xlink" width="851" zoomAndPan="magnify" viewBox="0 0 638.25 118.499997" height="158" preserveAspectRatio="xMidYMid meet" version="1.0"><defs><g/></defs><g fill="#000000" fill-opacity="1"><g transform="translate(8.844366, 85.8876)"><g><path d="M 24.421875 -53.859375 L 24.421875 -13.140625 C 24.421875 -11.609375 24.847656 -10.425781 25.703125 -9.59375 C 26.566406 -8.757812 27.710938 -8.34375 29.140625 -8.34375 L 41.25 -8.34375 L 41.25 0 L 28.484375 0 C 24.347656 0 21.097656 -1.15625 18.734375 -3.46875 C 16.378906 -5.78125 15.203125 -9.003906 15.203125 -13.140625 L 15.203125 -45.515625 L 2.28125 -45.515625 L 2.28125 -53.859375 Z M 24.421875 -53.859375 "/></g></g></g><g fill="#000000" fill-opacity="1"><g transform="translate(53.116142, 85.8876)"><g><path d="M 3.765625 -11.359375 C 3.765625 -13.378906 4.128906 -15.1875 4.859375 -16.78125 C 5.597656 -18.382812 6.65625 -19.75 8.03125 -20.875 C 9.414062 -22.007812 11.078125 -22.882812 13.015625 -23.5 C 14.960938 -24.113281 17.140625 -24.421875 19.546875 -24.421875 L 29.734375 -24.421875 L 29.734375 -27.890625 C 29.734375 -29.753906 29.03125 -31.238281 27.625 -32.34375 C 26.226562 -33.457031 24.300781 -34.015625 21.84375 -34.015625 C 19.820312 -34.015625 18.125 -33.644531 16.75 -32.90625 C 15.375 -32.164062 14.488281 -31.15625 14.09375 -29.875 L 5.015625 -29.875 C 5.648438 -33.414062 7.46875 -36.207031 10.46875 -38.25 C 13.476562 -40.289062 17.269531 -41.3125 21.84375 -41.3125 C 24.445312 -41.3125 26.804688 -41.003906 28.921875 -40.390625 C 31.035156 -39.773438 32.828125 -38.890625 34.296875 -37.734375 C 35.773438 -36.578125 36.921875 -35.175781 37.734375 -33.53125 C 38.546875 -31.882812 38.953125 -30.050781 38.953125 -28.03125 L 38.953125 0 L 30.25 0 L 30.25 -7.96875 L 29.65625 -7.96875 C 29.164062 -5.3125 27.773438 -3.195312 25.484375 -1.625 C 23.203125 -0.0507812 20.363281 0.734375 16.96875 0.734375 C 12.9375 0.734375 9.726562 -0.359375 7.34375 -2.546875 C 4.957031 -4.734375 3.765625 -7.671875 3.765625 -11.359375 Z M 20.140625 -6.5 C 22.941406 -6.5 25.238281 -7.171875 27.03125 -8.515625 C 28.832031 -9.867188 29.734375 -11.582031 29.734375 -13.65625 L 29.734375 -18.375 L 19.625 -18.375 C 17.5625 -18.375 15.9375 -17.851562 14.75 -16.8125 C 13.570312 -15.78125 12.984375 -14.332031 12.984375 -12.46875 C 12.984375 -10.601562 13.609375 -9.140625 14.859375 -8.078125 C 16.117188 -7.023438 17.878906 -6.5 20.140625 -6.5 Z M 20.140625 -6.5 "/></g></g></g><g fill="#000000" fill-opacity="1"><g transform="translate(97.387918, 85.8876)"><g><path d="M 7.015625 -40.578125 L 15.71875 -40.578125 L 15.71875 -33.578125 L 16.375 -33.578125 C 16.875 -36.035156 18.101562 -37.9375 20.0625 -39.28125 C 22.03125 -40.632812 24.539062 -41.3125 27.59375 -41.3125 C 31.96875 -41.3125 35.382812 -39.957031 37.84375 -37.25 C 40.300781 -34.550781 41.53125 -30.816406 41.53125 -26.046875 L 41.53125 -23.09375 L 31.875 -23.09375 L 31.875 -25.234375 C 31.875 -27.835938 31.160156 -29.863281 29.734375 -31.3125 C 28.304688 -32.769531 26.335938 -33.5 23.828125 -33.5 C 21.472656 -33.5 19.617188 -32.757812 18.265625 -31.28125 C 16.910156 -29.800781 16.234375 -27.785156 16.234375 -25.234375 L 16.234375 0 L 7.015625 0 Z M 7.015625 -40.578125 "/></g></g></g><g fill="#000000" fill-opacity="1"><g transform="translate(141.659695, 85.8876)"><g><path d="M 6.125 -8.40625 L 20.65625 -8.40625 L 20.65625 -32.25 L 7.96875 -32.25 L 7.96875 -40.578125 L 29.515625 -40.578125 L 29.515625 -8.40625 L 41.25 -8.40625 L 41.25 0 L 6.125 0 Z M 18 -51.578125 C 18 -53.003906 18.476562 -54.171875 19.4375 -55.078125 C 20.394531 -55.984375 21.660156 -56.4375 23.234375 -56.4375 L 25.15625 -56.4375 C 26.726562 -56.4375 27.992188 -55.984375 28.953125 -55.078125 C 29.910156 -54.171875 30.390625 -53.003906 30.390625 -51.578125 C 30.390625 -50.097656 29.898438 -48.914062 28.921875 -48.03125 C 27.941406 -47.144531 26.660156 -46.703125 25.078125 -46.703125 L 23.234375 -46.703125 C 21.660156 -46.703125 20.394531 -47.144531 19.4375 -48.03125 C 18.476562 -48.914062 18 -50.097656 18 -51.578125 Z M 18 -51.578125 "/></g></g></g><g fill="#000000" fill-opacity="1"><g transform="translate(185.931471, 85.8876)"><g><path d="M 20.578125 0.734375 C 15.804688 0.734375 12.003906 -0.234375 9.171875 -2.171875 C 6.347656 -4.117188 4.71875 -6.863281 4.28125 -10.40625 L 13.71875 -10.40625 C 14.019531 -9.125 14.785156 -8.125 16.015625 -7.40625 C 17.242188 -6.695312 18.765625 -6.34375 20.578125 -6.34375 L 23.53125 -6.34375 C 25.84375 -6.34375 27.625 -6.796875 28.875 -7.703125 C 30.132812 -8.617188 30.765625 -9.863281 30.765625 -11.4375 C 30.765625 -14.144531 28.675781 -15.789062 24.5 -16.375 L 18.734375 -17.046875 C 14.117188 -17.628906 10.703125 -18.90625 8.484375 -20.875 C 6.273438 -22.84375 5.171875 -25.671875 5.171875 -29.359375 C 5.171875 -33.203125 6.507812 -36.15625 9.1875 -38.21875 C 11.863281 -40.28125 15.710938 -41.3125 20.734375 -41.3125 L 23.75 -41.3125 C 28.226562 -41.3125 31.832031 -40.363281 34.5625 -38.46875 C 37.289062 -36.582031 38.90625 -33.941406 39.40625 -30.546875 L 29.953125 -30.546875 C 29.710938 -31.679688 29.035156 -32.578125 27.921875 -33.234375 C 26.816406 -33.898438 25.425781 -34.234375 23.75 -34.234375 L 20.734375 -34.234375 C 16.398438 -34.234375 14.234375 -32.707031 14.234375 -29.65625 C 14.234375 -27.050781 16.054688 -25.523438 19.703125 -25.078125 L 25.671875 -24.28125 C 30.492188 -23.6875 34.0625 -22.367188 36.375 -20.328125 C 38.6875 -18.285156 39.84375 -15.421875 39.84375 -11.734375 C 39.84375 -7.742188 38.441406 -4.664062 35.640625 -2.5 C 32.835938 -0.34375 28.800781 0.734375 23.53125 0.734375 Z M 20.578125 0.734375 "/></g></g></g><g fill="#000000" fill-opacity="1"><g transform="translate(230.203248, 85.8876)"><g><path d="M 20.578125 0.734375 C 15.804688 0.734375 12.003906 -0.234375 9.171875 -2.171875 C 6.347656 -4.117188 4.71875 -6.863281 4.28125 -10.40625 L 13.71875 -10.40625 C 14.019531 -9.125 14.785156 -8.125 16.015625 -7.40625 C 17.242188 -6.695312 18.765625 -6.34375 20.578125 -6.34375 L 23.53125 -6.34375 C 25.84375 -6.34375 27.625 -6.796875 28.875 -7.703125 C 30.132812 -8.617188 30.765625 -9.863281 30.765625 -11.4375 C 30.765625 -14.144531 28.675781 -15.789062 24.5 -16.375 L 18.734375 -17.046875 C 14.117188 -17.628906 10.703125 -18.90625 8.484375 -20.875 C 6.273438 -22.84375 5.171875 -25.671875 5.171875 -29.359375 C 5.171875 -33.203125 6.507812 -36.15625 9.1875 -38.21875 C 11.863281 -40.28125 15.710938 -41.3125 20.734375 -41.3125 L 23.75 -41.3125 C 28.226562 -41.3125 31.832031 -40.363281 34.5625 -38.46875 C 37.289062 -36.582031 38.90625 -33.941406 39.40625 -30.546875 L 29.953125 -30.546875 C 29.710938 -31.679688 29.035156 -32.578125 27.921875 -33.234375 C 26.816406 -33.898438 25.425781 -34.234375 23.75 -34.234375 L 20.734375 -34.234375 C 16.398438 -34.234375 14.234375 -32.707031 14.234375 -29.65625 C 14.234375 -27.050781 16.054688 -25.523438 19.703125 -25.078125 L 25.671875 -24.28125 C 30.492188 -23.6875 34.0625 -22.367188 36.375 -20.328125 C 38.6875 -18.285156 39.84375 -15.421875 39.84375 -11.734375 C 39.84375 -7.742188 38.441406 -4.664062 35.640625 -2.5 C 32.835938 -0.34375 28.800781 0.734375 23.53125 0.734375 Z M 20.578125 0.734375 "/></g></g></g><g fill="#000000" fill-opacity="1"><g transform="translate(274.475024, 85.8876)"><g><path d="M 3.765625 -11.359375 C 3.765625 -13.378906 4.128906 -15.1875 4.859375 -16.78125 C 5.597656 -18.382812 6.65625 -19.75 8.03125 -20.875 C 9.414062 -22.007812 11.078125 -22.882812 13.015625 -23.5 C 14.960938 -24.113281 17.140625 -24.421875 19.546875 -24.421875 L 29.734375 -24.421875 L 29.734375 -27.890625 C 29.734375 -29.753906 29.03125 -31.238281 27.625 -32.34375 C 26.226562 -33.457031 24.300781 -34.015625 21.84375 -34.015625 C 19.820312 -34.015625 18.125 -33.644531 16.75 -32.90625 C 15.375 -32.164062 14.488281 -31.15625 14.09375 -29.875 L 5.015625 -29.875 C 5.648438 -33.414062 7.46875 -36.207031 10.46875 -38.25 C 13.476562 -40.289062 17.269531 -41.3125 21.84375 -41.3125 C 24.445312 -41.3125 26.804688 -41.003906 28.921875 -40.390625 C 31.035156 -39.773438 32.828125 -38.890625 34.296875 -37.734375 C 35.773438 -36.578125 36.921875 -35.175781 37.734375 -33.53125 C 38.546875 -31.882812 38.953125 -30.050781 38.953125 -28.03125 L 38.953125 0 L 30.25 0 L 30.25 -7.96875 L 29.65625 -7.96875 C 29.164062 -5.3125 27.773438 -3.195312 25.484375 -1.625 C 23.203125 -0.0507812 20.363281 0.734375 16.96875 0.734375 C 12.9375 0.734375 9.726562 -0.359375 7.34375 -2.546875 C 4.957031 -4.734375 3.765625 -7.671875 3.765625 -11.359375 Z M 20.140625 -6.5 C 22.941406 -6.5 25.238281 -7.171875 27.03125 -8.515625 C 28.832031 -9.867188 29.734375 -11.582031 29.734375 -13.65625 L 29.734375 -18.375 L 19.625 -18.375 C 17.5625 -18.375 15.9375 -17.851562 14.75 -16.8125 C 13.570312 -15.78125 12.984375 -14.332031 12.984375 -12.46875 C 12.984375 -10.601562 13.609375 -9.140625 14.859375 -8.078125 C 16.117188 -7.023438 17.878906 -6.5 20.140625 -6.5 Z M 20.140625 -6.5 "/></g></g></g><g fill="#2563eb" fill-opacity="1"><g transform="translate(318.751562, 85.8876)"><g><path d="M 4.421875 1.84375 L 39.84375 1.84375 L 39.84375 10.1875 L 4.421875 10.1875 Z M 4.421875 1.84375 "/></g></g></g><g fill="#000000" fill-opacity="1"><g transform="translate(363.025686, 85.8876)"><g><path d="M 5.390625 -53.859375 L 14.6875 -53.859375 L 14.6875 -40.875 C 14.6875 -40.1875 14.671875 -39.410156 14.640625 -38.546875 C 14.617188 -37.691406 14.582031 -36.894531 14.53125 -36.15625 C 14.4375 -35.320312 14.363281 -34.460938 14.3125 -33.578125 L 14.984375 -33.578125 C 15.472656 -35.984375 16.660156 -37.875 18.546875 -39.25 C 20.441406 -40.625 22.867188 -41.3125 25.828125 -41.3125 C 27.941406 -41.3125 29.859375 -40.941406 31.578125 -40.203125 C 33.296875 -39.472656 34.757812 -38.414062 35.96875 -37.03125 C 37.175781 -35.65625 38.109375 -33.992188 38.765625 -32.046875 C 39.429688 -30.109375 39.765625 -27.910156 39.765625 -25.453125 L 39.765625 -15.34375 C 39.765625 -12.882812 39.429688 -10.660156 38.765625 -8.671875 C 38.109375 -6.679688 37.175781 -4.984375 35.96875 -3.578125 C 34.757812 -2.171875 33.296875 -1.097656 31.578125 -0.359375 C 29.859375 0.367188 27.941406 0.734375 25.828125 0.734375 C 22.867188 0.734375 20.441406 0.046875 18.546875 -1.328125 C 16.660156 -2.703125 15.472656 -4.617188 14.984375 -7.078125 L 14.3125 -7.078125 L 14.3125 0 L 5.390625 0 Z M 14.6875 -15.34375 C 14.6875 -12.9375 15.382812 -10.992188 16.78125 -9.515625 C 18.1875 -8.035156 20.09375 -7.296875 22.5 -7.296875 C 25.007812 -7.296875 26.976562 -8.046875 28.40625 -9.546875 C 29.832031 -11.054688 30.546875 -13.0625 30.546875 -15.5625 L 30.546875 -25.234375 C 30.546875 -27.742188 29.832031 -29.722656 28.40625 -31.171875 C 26.976562 -32.617188 25.007812 -33.34375 22.5 -33.34375 C 20.144531 -33.34375 18.253906 -32.601562 16.828125 -31.125 C 15.398438 -29.65625 14.6875 -27.691406 14.6875 -25.234375 Z M 14.6875 -15.34375 "/></g></g></g><g fill="#000000" fill-opacity="1"><g transform="translate(407.297463, 85.8876)"><g><path d="M 13.71875 -15.34375 C 13.71875 -12.882812 14.46875 -10.941406 15.96875 -9.515625 C 17.46875 -8.085938 19.523438 -7.375 22.140625 -7.375 C 24.742188 -7.375 26.796875 -8.085938 28.296875 -9.515625 C 29.796875 -10.941406 30.546875 -12.882812 30.546875 -15.34375 L 30.546875 -25.3125 C 30.546875 -27.769531 29.796875 -29.710938 28.296875 -31.140625 C 26.796875 -32.566406 24.742188 -33.28125 22.140625 -33.28125 C 19.578125 -33.28125 17.53125 -32.566406 16 -31.140625 C 14.476562 -29.710938 13.71875 -27.769531 13.71875 -25.3125 Z M 4.5 -25.3125 C 4.5 -27.71875 4.914062 -29.90625 5.75 -31.875 C 6.59375 -33.84375 7.785156 -35.523438 9.328125 -36.921875 C 10.878906 -38.328125 12.738281 -39.410156 14.90625 -40.171875 C 17.070312 -40.929688 19.484375 -41.3125 22.140625 -41.3125 C 24.796875 -41.3125 27.203125 -40.929688 29.359375 -40.171875 C 31.523438 -39.410156 33.382812 -38.328125 34.9375 -36.921875 C 36.488281 -35.523438 37.679688 -33.84375 38.515625 -31.875 C 39.347656 -29.90625 39.765625 -27.71875 39.765625 -25.3125 L 39.765625 -15.34375 C 39.765625 -12.9375 39.347656 -10.734375 38.515625 -8.734375 C 37.679688 -6.742188 36.5 -5.046875 34.96875 -3.640625 C 33.445312 -2.242188 31.59375 -1.164062 29.40625 -0.40625 C 27.21875 0.351562 24.796875 0.734375 22.140625 0.734375 C 19.484375 0.734375 17.070312 0.34375 14.90625 -0.4375 C 12.738281 -1.226562 10.878906 -2.320312 9.328125 -3.71875 C 7.785156 -5.125 6.59375 -6.8125 5.75 -8.78125 C 4.914062 -10.75 4.5 -12.9375 4.5 -15.34375 Z M 4.5 -25.3125 "/></g></g></g><g fill="#000000" fill-opacity="1"><g transform="translate(451.569239, 85.8876)"><g><path d="M 7.015625 -40.578125 L 15.71875 -40.578125 L 15.71875 -33.578125 L 16.375 -33.578125 C 16.875 -36.035156 18.101562 -37.9375 20.0625 -39.28125 C 22.03125 -40.632812 24.539062 -41.3125 27.59375 -41.3125 C 31.96875 -41.3125 35.382812 -39.957031 37.84375 -37.25 C 40.300781 -34.550781 41.53125 -30.816406 41.53125 -26.046875 L 41.53125 -23.09375 L 31.875 -23.09375 L 31.875 -25.234375 C 31.875 -27.835938 31.160156 -29.863281 29.734375 -31.3125 C 28.304688 -32.769531 26.335938 -33.5 23.828125 -33.5 C 21.472656 -33.5 19.617188 -32.757812 18.265625 -31.28125 C 16.910156 -29.800781 16.234375 -27.785156 16.234375 -25.234375 L 16.234375 0 L 7.015625 0 Z M 7.015625 -40.578125 "/></g></g></g><g fill="#000000" fill-opacity="1"><g transform="translate(495.841015, 85.8876)"><g><path d="M 4.28125 -25.609375 C 4.28125 -27.960938 4.609375 -30.109375 5.265625 -32.046875 C 5.929688 -33.992188 6.878906 -35.65625 8.109375 -37.03125 C 9.335938 -38.414062 10.8125 -39.472656 12.53125 -40.203125 C 14.257812 -40.941406 16.179688 -41.3125 18.296875 -41.3125 C 21.347656 -41.3125 23.859375 -40.585938 25.828125 -39.140625 C 27.796875 -37.691406 29.023438 -35.710938 29.515625 -33.203125 L 30.03125 -33.203125 L 30.03125 -40.578125 L 38.875 -40.578125 L 38.875 -2.515625 C 38.875 -0.242188 38.476562 1.785156 37.6875 3.578125 C 36.90625 5.367188 35.773438 6.90625 34.296875 8.1875 C 32.828125 9.46875 31.046875 10.453125 28.953125 11.140625 C 26.867188 11.828125 24.546875 12.171875 21.984375 12.171875 L 11.140625 12.171875 L 11.140625 4.5 L 21.984375 4.5 C 24.347656 4.5 26.21875 3.882812 27.59375 2.65625 C 28.96875 1.425781 29.65625 -0.296875 29.65625 -2.515625 L 29.65625 -3.3125 L 29.953125 -11.4375 L 29.515625 -11.4375 C 29.023438 -8.925781 27.78125 -6.941406 25.78125 -5.484375 C 23.789062 -4.035156 21.296875 -3.3125 18.296875 -3.3125 C 16.179688 -3.3125 14.257812 -3.679688 12.53125 -4.421875 C 10.8125 -5.160156 9.335938 -6.21875 8.109375 -7.59375 C 6.878906 -8.976562 5.929688 -10.640625 5.265625 -12.578125 C 4.609375 -14.523438 4.28125 -16.675781 4.28125 -19.03125 Z M 13.578125 -19.25 C 13.578125 -16.75 14.289062 -14.796875 15.71875 -13.390625 C 17.144531 -11.984375 19.113281 -11.28125 21.625 -11.28125 C 24.082031 -11.28125 26.035156 -11.992188 27.484375 -13.421875 C 28.929688 -14.847656 29.65625 -16.789062 29.65625 -19.25 L 29.65625 -25.375 C 29.65625 -27.832031 28.929688 -29.773438 27.484375 -31.203125 C 26.035156 -32.628906 24.082031 -33.34375 21.625 -33.34375 C 19.113281 -33.34375 17.144531 -32.628906 15.71875 -31.203125 C 14.289062 -29.773438 13.578125 -27.832031 13.578125 -25.375 Z M 13.578125 -19.25 "/></g></g></g><g fill="#000000" fill-opacity="1"><g transform="translate(540.112792, 85.8876)"><g><path d="M 22.140625 0.734375 C 19.484375 0.734375 17.054688 0.351562 14.859375 -0.40625 C 12.671875 -1.164062 10.816406 -2.234375 9.296875 -3.609375 C 7.773438 -4.992188 6.59375 -6.664062 5.75 -8.625 C 4.914062 -10.59375 4.5 -12.785156 4.5 -15.203125 L 4.5 -25.453125 C 4.5 -27.859375 4.914062 -30.046875 5.75 -32.015625 C 6.59375 -33.984375 7.773438 -35.65625 9.296875 -37.03125 C 10.816406 -38.414062 12.671875 -39.472656 14.859375 -40.203125 C 17.054688 -40.941406 19.484375 -41.3125 22.140625 -41.3125 C 24.796875 -41.3125 27.203125 -40.929688 29.359375 -40.171875 C 31.523438 -39.410156 33.367188 -38.34375 34.890625 -36.96875 C 36.421875 -35.59375 37.601562 -33.921875 38.4375 -31.953125 C 39.269531 -29.984375 39.6875 -27.789062 39.6875 -25.375 L 39.6875 -18 L 13.65625 -18 L 13.65625 -15.34375 C 13.65625 -12.632812 14.40625 -10.519531 15.90625 -9 C 17.40625 -7.476562 19.484375 -6.71875 22.140625 -6.71875 C 24.148438 -6.71875 25.851562 -7.023438 27.25 -7.640625 C 28.65625 -8.253906 29.65625 -9.148438 30.25 -10.328125 L 39.328125 -10.328125 C 38.878906 -8.660156 38.140625 -7.132812 37.109375 -5.75 C 36.078125 -4.375 34.8125 -3.207031 33.3125 -2.25 C 31.8125 -1.289062 30.113281 -0.550781 28.21875 -0.03125 C 26.320312 0.476562 24.296875 0.734375 22.140625 0.734375 Z M 30.625 -24.203125 L 30.625 -25.375 C 30.625 -28.082031 29.882812 -30.1875 28.40625 -31.6875 C 26.925781 -33.1875 24.835938 -33.9375 22.140625 -33.9375 C 19.484375 -33.9375 17.40625 -33.1875 15.90625 -31.6875 C 14.40625 -30.1875 13.65625 -28.109375 13.65625 -25.453125 L 13.65625 -24.203125 Z M 30.625 -24.203125 "/></g></g></g><g fill="#000000" fill-opacity="1"><g transform="translate(584.384568, 85.8876)"><g><path d="M 20.578125 0.734375 C 15.804688 0.734375 12.003906 -0.234375 9.171875 -2.171875 C 6.347656 -4.117188 4.71875 -6.863281 4.28125 -10.40625 L 13.71875 -10.40625 C 14.019531 -9.125 14.785156 -8.125 16.015625 -7.40625 C 17.242188 -6.695312 18.765625 -6.34375 20.578125 -6.34375 L 23.53125 -6.34375 C 25.84375 -6.34375 27.625 -6.796875 28.875 -7.703125 C 30.132812 -8.617188 30.765625 -9.863281 30.765625 -11.4375 C 30.765625 -14.144531 28.675781 -15.789062 24.5 -16.375 L 18.734375 -17.046875 C 14.117188 -17.628906 10.703125 -18.90625 8.484375 -20.875 C 6.273438 -22.84375 5.171875 -25.671875 5.171875 -29.359375 C 5.171875 -33.203125 6.507812 -36.15625 9.1875 -38.21875 C 11.863281 -40.28125 15.710938 -41.3125 20.734375 -41.3125 L 23.75 -41.3125 C 28.226562 -41.3125 31.832031 -40.363281 34.5625 -38.46875 C 37.289062 -36.582031 38.90625 -33.941406 39.40625 -30.546875 L 29.953125 -30.546875 C 29.710938 -31.679688 29.035156 -32.578125 27.921875 -33.234375 C 26.816406 -33.898438 25.425781 -34.234375 23.75 -34.234375 L 20.734375 -34.234375 C 16.398438 -34.234375 14.234375 -32.707031 14.234375 -29.65625 C 14.234375 -27.050781 16.054688 -25.523438 19.703125 -25.078125 L 25.671875 -24.28125 C 30.492188 -23.6875 34.0625 -22.367188 36.375 -20.328125 C 38.6875 -18.285156 39.84375 -15.421875 39.84375 -11.734375 C 39.84375 -7.742188 38.441406 -4.664062 35.640625 -2.5 C 32.835938 -0.34375 28.800781 0.734375 23.53125 0.734375 Z M 20.578125 0.734375 "/></g></g></g></svg>