<svg xmlns="http://www.w3.org/2000/svg" xmlns:xlink="http://www.w3.org/1999/xlink" width="851" zoomAndPan="magnify" viewBox="0 0 638.25 118.499997" height="158" preserveAspectRatio="xMidYMid meet" version="1.0"><defs><g/><clipPath id="f10e049e84"><path d="M 583 79 L 622.992188 79 L 622.992188 89 L 583 89 Z M 583 79 " clip-rule="nonzero"/></clipPath><clipPath id="1097e60205"><rect x="0" width="623" y="0" height="100"/></clipPath></defs><g transform="matrix(1, 0, 0, 1, 7, 9)"><g clip-path="url(#1097e60205)"><g fill="#000000" fill-opacity="1"><g transform="translate(1.100906, 79.574347)"><g><path d="M 5.15625 0 L 5.15625 -59.46875 L 17.359375 -59.46875 L 17.359375 -10.21875 L 43.34375 -10.21875 L 43.34375 0 Z M 5.15625 0 "/></g></g></g><g fill="#000000" fill-opacity="1"><g transform="translate(47.166869, 79.574347)"><g><path d="M 17.4375 0.84375 C 14.625 0.84375 12.097656 0.351562 9.859375 -0.625 C 7.617188 -1.613281 5.859375 -3.085938 4.578125 -5.046875 C 3.304688 -7.003906 2.671875 -9.429688 2.671875 -12.328125 C 2.671875 -14.804688 3.125 -16.867188 4.03125 -18.515625 C 4.9375 -20.171875 6.171875 -21.503906 7.734375 -22.515625 C 9.304688 -23.523438 11.097656 -24.289062 13.109375 -24.8125 C 15.117188 -25.332031 17.226562 -25.695312 19.4375 -25.90625 C 22.019531 -26.175781 24.09375 -26.421875 25.65625 -26.640625 C 27.226562 -26.867188 28.375 -27.222656 29.09375 -27.703125 C 29.8125 -28.179688 30.171875 -28.898438 30.171875 -29.859375 L 30.171875 -30.0625 C 30.171875 -31.28125 29.898438 -32.320312 29.359375 -33.1875 C 28.816406 -34.050781 28.023438 -34.71875 26.984375 -35.1875 C 25.941406 -35.65625 24.675781 -35.890625 23.1875 -35.890625 C 21.675781 -35.890625 20.351562 -35.65625 19.21875 -35.1875 C 18.09375 -34.71875 17.175781 -34.09375 16.46875 -33.3125 C 15.757812 -32.53125 15.257812 -31.644531 14.96875 -30.65625 L 3.984375 -32.046875 C 4.597656 -34.710938 5.769531 -36.988281 7.5 -38.875 C 9.226562 -40.769531 11.4375 -42.210938 14.125 -43.203125 C 16.8125 -44.203125 19.875 -44.703125 23.3125 -44.703125 C 25.8125 -44.703125 28.1875 -44.410156 30.4375 -43.828125 C 32.6875 -43.242188 34.6875 -42.335938 36.4375 -41.109375 C 38.195312 -39.890625 39.578125 -38.34375 40.578125 -36.46875 C 41.578125 -34.59375 42.078125 -32.347656 42.078125 -29.734375 L 42.078125 0 L 30.703125 0 L 30.703125 -6.140625 L 30.34375 -6.140625 C 29.625 -4.765625 28.671875 -3.550781 27.484375 -2.5 C 26.296875 -1.445312 24.875 -0.625 23.21875 -0.03125 C 21.570312 0.550781 19.644531 0.84375 17.4375 0.84375 Z M 20.796875 -7.5 C 22.679688 -7.5 24.328125 -7.867188 25.734375 -8.609375 C 27.148438 -9.359375 28.253906 -10.359375 29.046875 -11.609375 C 29.847656 -12.859375 30.25 -14.269531 30.25 -15.84375 L 30.25 -20.515625 C 29.882812 -20.304688 29.367188 -20.09375 28.703125 -19.875 C 28.035156 -19.664062 27.273438 -19.476562 26.421875 -19.3125 C 25.566406 -19.15625 24.707031 -19.007812 23.84375 -18.875 C 22.976562 -18.75 22.1875 -18.628906 21.46875 -18.515625 C 20.03125 -18.304688 18.753906 -17.96875 17.640625 -17.5 C 16.523438 -17.039062 15.660156 -16.414062 15.046875 -15.625 C 14.429688 -14.84375 14.125 -13.863281 14.125 -12.6875 C 14.125 -11.570312 14.410156 -10.628906 14.984375 -9.859375 C 15.554688 -9.085938 16.34375 -8.5 17.34375 -8.09375 C 18.34375 -7.695312 19.492188 -7.5 20.796875 -7.5 Z M 20.796875 -7.5 "/></g></g></g><g fill="#000000" fill-opacity="1"><g transform="translate(94.111039, 79.574347)"><g><path d="M 4.90625 0 L 4.90625 -44.0625 L 16.453125 -44.0625 L 16.453125 -36.4375 L 16.84375 -36.4375 C 17.644531 -39.125 18.972656 -41.15625 20.828125 -42.53125 C 22.691406 -43.90625 24.90625 -44.59375 27.46875 -44.59375 C 28.101562 -44.59375 28.765625 -44.5625 29.453125 -44.5 C 30.148438 -44.445312 30.75 -44.367188 31.25 -44.265625 L 31.25 -33.734375 C 30.75 -33.890625 30 -34.015625 29 -34.109375 C 28 -34.203125 27.035156 -34.25 26.109375 -34.25 C 24.347656 -34.25 22.753906 -33.863281 21.328125 -33.09375 C 19.910156 -32.320312 18.800781 -31.226562 18 -29.8125 C 17.207031 -28.40625 16.8125 -26.742188 16.8125 -24.828125 L 16.8125 0 Z M 4.90625 0 "/></g></g></g><g fill="#000000" fill-opacity="1"><g transform="translate(127.203495, 79.574347)"><g><path d="M 4.90625 0 L 4.90625 -44.0625 L 16.8125 -44.0625 L 16.8125 0 Z M 10.859375 -49.78125 C 9.023438 -49.78125 7.460938 -50.378906 6.171875 -51.578125 C 4.878906 -52.773438 4.234375 -54.238281 4.234375 -55.96875 C 4.234375 -57.695312 4.878906 -59.160156 6.171875 -60.359375 C 7.460938 -61.554688 9.023438 -62.15625 10.859375 -62.15625 C 12.703125 -62.15625 14.257812 -61.554688 15.53125 -60.359375 C 16.8125 -59.160156 17.453125 -57.695312 17.453125 -55.96875 C 17.453125 -54.238281 16.8125 -52.773438 15.53125 -51.578125 C 14.257812 -50.378906 12.703125 -49.78125 10.859375 -49.78125 Z M 10.859375 -49.78125 "/></g></g></g><g fill="#000000" fill-opacity="1"><g transform="translate(148.919166, 79.574347)"><g><path d="M 22.546875 0.921875 C 18.960938 0.921875 15.78125 0.394531 13 -0.65625 C 10.21875 -1.707031 7.953125 -3.226562 6.203125 -5.21875 C 4.460938 -7.21875 3.363281 -9.617188 2.90625 -12.421875 L 14.125 -13.9375 C 14.632812 -11.90625 15.609375 -10.367188 17.046875 -9.328125 C 18.484375 -8.296875 20.398438 -7.78125 22.796875 -7.78125 C 25.054688 -7.78125 26.835938 -8.210938 28.140625 -9.078125 C 29.441406 -9.941406 30.09375 -11.039062 30.09375 -12.375 C 30.09375 -13.519531 29.617188 -14.457031 28.671875 -15.1875 C 27.734375 -15.914062 26.316406 -16.484375 24.421875 -16.890625 L 16.8125 -18.40625 C 12.550781 -19.28125 9.351562 -20.769531 7.21875 -22.875 C 5.09375 -24.976562 4.03125 -27.691406 4.03125 -31.015625 C 4.03125 -33.804688 4.796875 -36.226562 6.328125 -38.28125 C 7.859375 -40.332031 10.015625 -41.914062 12.796875 -43.03125 C 15.578125 -44.144531 18.828125 -44.703125 22.546875 -44.703125 C 26.117188 -44.703125 29.207031 -44.195312 31.8125 -43.1875 C 34.414062 -42.175781 36.507812 -40.738281 38.09375 -38.875 C 39.675781 -37.007812 40.679688 -34.816406 41.109375 -32.296875 L 30.453125 -30.8125 C 30.078125 -32.382812 29.242188 -33.671875 27.953125 -34.671875 C 26.671875 -35.671875 24.953125 -36.171875 22.796875 -36.171875 C 20.796875 -36.171875 19.148438 -35.75 17.859375 -34.90625 C 16.566406 -34.070312 15.921875 -32.988281 15.921875 -31.65625 C 15.921875 -30.539062 16.359375 -29.601562 17.234375 -28.84375 C 18.117188 -28.082031 19.5625 -27.503906 21.5625 -27.109375 L 29.53125 -25.5 C 33.84375 -24.65625 37.039062 -23.25 39.125 -21.28125 C 41.21875 -19.3125 42.265625 -16.742188 42.265625 -13.578125 C 42.265625 -10.671875 41.425781 -8.132812 39.75 -5.96875 C 38.082031 -3.800781 35.765625 -2.109375 32.796875 -0.890625 C 29.828125 0.316406 26.410156 0.921875 22.546875 0.921875 Z M 22.546875 0.921875 "/></g></g></g><g fill="#000000" fill-opacity="1"><g transform="translate(193.987156, 79.574347)"><g><path d="M 22.546875 0.921875 C 18.960938 0.921875 15.78125 0.394531 13 -0.65625 C 10.21875 -1.707031 7.953125 -3.226562 6.203125 -5.21875 C 4.460938 -7.21875 3.363281 -9.617188 2.90625 -12.421875 L 14.125 -13.9375 C 14.632812 -11.90625 15.609375 -10.367188 17.046875 -9.328125 C 18.484375 -8.296875 20.398438 -7.78125 22.796875 -7.78125 C 25.054688 -7.78125 26.835938 -8.210938 28.140625 -9.078125 C 29.441406 -9.941406 30.09375 -11.039062 30.09375 -12.375 C 30.09375 -13.519531 29.617188 -14.457031 28.671875 -15.1875 C 27.734375 -15.914062 26.316406 -16.484375 24.421875 -16.890625 L 16.8125 -18.40625 C 12.550781 -19.28125 9.351562 -20.769531 7.21875 -22.875 C 5.09375 -24.976562 4.03125 -27.691406 4.03125 -31.015625 C 4.03125 -33.804688 4.796875 -36.226562 6.328125 -38.28125 C 7.859375 -40.332031 10.015625 -41.914062 12.796875 -43.03125 C 15.578125 -44.144531 18.828125 -44.703125 22.546875 -44.703125 C 26.117188 -44.703125 29.207031 -44.195312 31.8125 -43.1875 C 34.414062 -42.175781 36.507812 -40.738281 38.09375 -38.875 C 39.675781 -37.007812 40.679688 -34.816406 41.109375 -32.296875 L 30.453125 -30.8125 C 30.078125 -32.382812 29.242188 -33.671875 27.953125 -34.671875 C 26.671875 -35.671875 24.953125 -36.171875 22.796875 -36.171875 C 20.796875 -36.171875 19.148438 -35.75 17.859375 -34.90625 C 16.566406 -34.070312 15.921875 -32.988281 15.921875 -31.65625 C 15.921875 -30.539062 16.359375 -29.601562 17.234375 -28.84375 C 18.117188 -28.082031 19.5625 -27.503906 21.5625 -27.109375 L 29.53125 -25.5 C 33.84375 -24.65625 37.039062 -23.25 39.125 -21.28125 C 41.21875 -19.3125 42.265625 -16.742188 42.265625 -13.578125 C 42.265625 -10.671875 41.425781 -8.132812 39.75 -5.96875 C 38.082031 -3.800781 35.765625 -2.109375 32.796875 -0.890625 C 29.828125 0.316406 26.410156 0.921875 22.546875 0.921875 Z M 22.546875 0.921875 "/></g></g></g><g fill="#000000" fill-opacity="1"><g transform="translate(239.055166, 79.574347)"><g><path d="M 17.4375 0.84375 C 14.625 0.84375 12.097656 0.351562 9.859375 -0.625 C 7.617188 -1.613281 5.859375 -3.085938 4.578125 -5.046875 C 3.304688 -7.003906 2.671875 -9.429688 2.671875 -12.328125 C 2.671875 -14.804688 3.125 -16.867188 4.03125 -18.515625 C 4.9375 -20.171875 6.171875 -21.503906 7.734375 -22.515625 C 9.304688 -23.523438 11.097656 -24.289062 13.109375 -24.8125 C 15.117188 -25.332031 17.226562 -25.695312 19.4375 -25.90625 C 22.019531 -26.175781 24.09375 -26.421875 25.65625 -26.640625 C 27.226562 -26.867188 28.375 -27.222656 29.09375 -27.703125 C 29.8125 -28.179688 30.171875 -28.898438 30.171875 -29.859375 L 30.171875 -30.0625 C 30.171875 -31.28125 29.898438 -32.320312 29.359375 -33.1875 C 28.816406 -34.050781 28.023438 -34.71875 26.984375 -35.1875 C 25.941406 -35.65625 24.675781 -35.890625 23.1875 -35.890625 C 21.675781 -35.890625 20.351562 -35.65625 19.21875 -35.1875 C 18.09375 -34.71875 17.175781 -34.09375 16.46875 -33.3125 C 15.757812 -32.53125 15.257812 -31.644531 14.96875 -30.65625 L 3.984375 -32.046875 C 4.597656 -34.710938 5.769531 -36.988281 7.5 -38.875 C 9.226562 -40.769531 11.4375 -42.210938 14.125 -43.203125 C 16.8125 -44.203125 19.875 -44.703125 23.3125 -44.703125 C 25.8125 -44.703125 28.1875 -44.410156 30.4375 -43.828125 C 32.6875 -43.242188 34.6875 -42.335938 36.4375 -41.109375 C 38.195312 -39.890625 39.578125 -38.34375 40.578125 -36.46875 C 41.578125 -34.59375 42.078125 -32.347656 42.078125 -29.734375 L 42.078125 0 L 30.703125 0 L 30.703125 -6.140625 L 30.34375 -6.140625 C 29.625 -4.765625 28.671875 -3.550781 27.484375 -2.5 C 26.296875 -1.445312 24.875 -0.625 23.21875 -0.03125 C 21.570312 0.550781 19.644531 0.84375 17.4375 0.84375 Z M 20.796875 -7.5 C 22.679688 -7.5 24.328125 -7.867188 25.734375 -8.609375 C 27.148438 -9.359375 28.253906 -10.359375 29.046875 -11.609375 C 29.847656 -12.859375 30.25 -14.269531 30.25 -15.84375 L 30.25 -20.515625 C 29.882812 -20.304688 29.367188 -20.09375 28.703125 -19.875 C 28.035156 -19.664062 27.273438 -19.476562 26.421875 -19.3125 C 25.566406 -19.15625 24.707031 -19.007812 23.84375 -18.875 C 22.976562 -18.75 22.1875 -18.628906 21.46875 -18.515625 C 20.03125 -18.304688 18.753906 -17.96875 17.640625 -17.5 C 16.523438 -17.039062 15.660156 -16.414062 15.046875 -15.625 C 14.429688 -14.84375 14.125 -13.863281 14.125 -12.6875 C 14.125 -11.570312 14.410156 -10.628906 14.984375 -9.859375 C 15.554688 -9.085938 16.34375 -8.5 17.34375 -8.09375 C 18.34375 -7.695312 19.492188 -7.5 20.796875 -7.5 Z M 20.796875 -7.5 "/></g></g></g><g fill="#000000" fill-opacity="1"><g transform="translate(304.960619, 79.574347)"><g><path d="M 5.15625 0 L 5.15625 -59.46875 L 28.8125 -59.46875 C 33.15625 -59.46875 36.789062 -58.816406 39.71875 -57.515625 C 42.644531 -56.210938 44.847656 -54.410156 46.328125 -52.109375 C 47.804688 -49.804688 48.546875 -47.164062 48.546875 -44.1875 C 48.546875 -41.875 48.082031 -39.835938 47.15625 -38.078125 C 46.238281 -36.328125 44.972656 -34.890625 43.359375 -33.765625 C 41.753906 -32.648438 39.914062 -31.851562 37.84375 -31.375 L 37.84375 -30.859375 C 40.132812 -30.753906 42.265625 -30.109375 44.234375 -28.921875 C 46.203125 -27.734375 47.789062 -26.085938 49 -23.984375 C 50.207031 -21.890625 50.8125 -19.390625 50.8125 -16.484375 C 50.8125 -13.316406 50.039062 -10.488281 48.5 -8 C 46.957031 -5.507812 44.660156 -3.550781 41.609375 -2.125 C 38.566406 -0.707031 34.796875 0 30.296875 0 Z M 17.328125 -9.9375 L 28.0625 -9.9375 C 31.550781 -9.9375 34.125 -10.617188 35.78125 -11.984375 C 37.445312 -13.359375 38.28125 -15.207031 38.28125 -17.53125 C 38.28125 -19.195312 37.878906 -20.671875 37.078125 -21.953125 C 36.285156 -23.234375 35.144531 -24.234375 33.65625 -24.953125 C 32.164062 -25.671875 30.394531 -26.03125 28.34375 -26.03125 L 17.328125 -26.03125 Z M 17.328125 -34.5625 L 27.21875 -34.5625 C 28.976562 -34.5625 30.535156 -34.867188 31.890625 -35.484375 C 33.242188 -36.097656 34.304688 -36.984375 35.078125 -38.140625 C 35.859375 -39.296875 36.25 -40.660156 36.25 -42.234375 C 36.25 -44.441406 35.472656 -46.222656 33.921875 -47.578125 C 32.378906 -48.929688 30.203125 -49.609375 27.390625 -49.609375 L 17.328125 -49.609375 Z M 17.328125 -34.5625 "/></g></g></g><g fill="#000000" fill-opacity="1"><g transform="translate(358.730865, 79.574347)"><g><path d="M 24.78125 0.875 C 20.34375 0.875 16.492188 -0.0703125 13.234375 -1.96875 C 9.972656 -3.875 7.457031 -6.535156 5.6875 -9.953125 C 3.914062 -13.378906 3.03125 -17.351562 3.03125 -21.875 C 3.03125 -26.445312 3.914062 -30.441406 5.6875 -33.859375 C 7.457031 -37.285156 9.972656 -39.945312 13.234375 -41.84375 C 16.492188 -43.75 20.34375 -44.703125 24.78125 -44.703125 C 29.207031 -44.703125 33.046875 -43.75 36.296875 -41.84375 C 39.554688 -39.945312 42.070312 -37.285156 43.84375 -33.859375 C 45.613281 -30.441406 46.5 -26.445312 46.5 -21.875 C 46.5 -17.351562 45.613281 -13.378906 43.84375 -9.953125 C 42.070312 -6.535156 39.554688 -3.875 36.296875 -1.96875 C 33.046875 -0.0703125 29.207031 0.875 24.78125 0.875 Z M 24.78125 -8.546875 C 26.863281 -8.546875 28.613281 -9.113281 30.03125 -10.25 C 31.457031 -11.394531 32.539062 -12.972656 33.28125 -14.984375 C 34.03125 -16.992188 34.40625 -19.304688 34.40625 -21.921875 C 34.40625 -24.546875 34.03125 -26.859375 33.28125 -28.859375 C 32.539062 -30.859375 31.457031 -32.425781 30.03125 -33.5625 C 28.613281 -34.707031 26.863281 -35.28125 24.78125 -35.28125 C 22.707031 -35.28125 20.953125 -34.707031 19.515625 -33.5625 C 18.078125 -32.425781 16.992188 -30.859375 16.265625 -28.859375 C 15.535156 -26.859375 15.171875 -24.546875 15.171875 -21.921875 C 15.171875 -19.304688 15.535156 -16.992188 16.265625 -14.984375 C 16.992188 -12.972656 18.070312 -11.394531 19.5 -10.25 C 20.925781 -9.113281 22.6875 -8.546875 24.78125 -8.546875 Z M 24.78125 -8.546875 "/></g></g></g><g fill="#000000" fill-opacity="1"><g transform="translate(408.269728, 79.574347)"><g><path d="M 4.90625 0 L 4.90625 -44.0625 L 16.453125 -44.0625 L 16.453125 -36.4375 L 16.84375 -36.4375 C 17.644531 -39.125 18.972656 -41.15625 20.828125 -42.53125 C 22.691406 -43.90625 24.90625 -44.59375 27.46875 -44.59375 C 28.101562 -44.59375 28.765625 -44.5625 29.453125 -44.5 C 30.148438 -44.445312 30.75 -44.367188 31.25 -44.265625 L 31.25 -33.734375 C 30.75 -33.890625 30 -34.015625 29 -34.109375 C 28 -34.203125 27.035156 -34.25 26.109375 -34.25 C 24.347656 -34.25 22.753906 -33.863281 21.328125 -33.09375 C 19.910156 -32.320312 18.800781 -31.226562 18 -29.8125 C 17.207031 -28.40625 16.8125 -26.742188 16.8125 -24.828125 L 16.8125 0 Z M 4.90625 0 "/></g></g></g><g fill="#000000" fill-opacity="1"><g transform="translate(439.326311, 79.574347)"><g><path d="M 24.75 17.5625 C 20.96875 17.5625 17.691406 17.066406 14.921875 16.078125 C 12.160156 15.097656 9.925781 13.734375 8.21875 11.984375 C 6.519531 10.242188 5.378906 8.242188 4.796875 5.984375 L 15.28125 3.796875 C 15.65625 4.671875 16.226562 5.492188 17 6.265625 C 17.769531 7.035156 18.785156 7.660156 20.046875 8.140625 C 21.316406 8.617188 22.867188 8.859375 24.703125 8.859375 C 27.710938 8.859375 30.066406 8.140625 31.765625 6.703125 C 33.472656 5.265625 34.328125 3.054688 34.328125 0.078125 L 34.328125 -7.75 L 33.609375 -7.75 C 32.992188 -6.4375 32.15625 -5.226562 31.09375 -4.125 C 30.03125 -3.019531 28.6875 -2.132812 27.0625 -1.46875 C 25.4375 -0.8125 23.484375 -0.484375 21.203125 -0.484375 C 17.796875 -0.484375 14.71875 -1.300781 11.96875 -2.9375 C 9.226562 -4.570312 7.050781 -7 5.4375 -10.21875 C 3.832031 -13.4375 3.03125 -17.414062 3.03125 -22.15625 C 3.03125 -27.019531 3.847656 -31.128906 5.484375 -34.484375 C 7.117188 -37.835938 9.304688 -40.378906 12.046875 -42.109375 C 14.796875 -43.835938 17.847656 -44.703125 21.203125 -44.703125 C 23.566406 -44.703125 25.578125 -44.316406 27.234375 -43.546875 C 28.898438 -42.773438 30.285156 -41.789062 31.390625 -40.59375 C 32.492188 -39.394531 33.367188 -38.160156 34.015625 -36.890625 L 34.375 -36.890625 L 34.375 -44.0625 L 46.140625 -44.0625 L 46.140625 -0.640625 C 46.140625 3.460938 45.222656 6.863281 43.390625 9.5625 C 41.554688 12.257812 39.035156 14.265625 35.828125 15.578125 C 32.617188 16.898438 28.925781 17.5625 24.75 17.5625 Z M 24.78125 -9.65625 C 26.832031 -9.65625 28.578125 -10.160156 30.015625 -11.171875 C 31.453125 -12.179688 32.550781 -13.625 33.3125 -15.5 C 34.070312 -17.382812 34.453125 -19.644531 34.453125 -22.28125 C 34.453125 -24.882812 34.070312 -27.148438 33.3125 -29.078125 C 32.550781 -31.003906 31.453125 -32.5 30.015625 -33.5625 C 28.578125 -34.632812 26.832031 -35.171875 24.78125 -35.171875 C 22.738281 -35.171875 21.003906 -34.625 19.578125 -33.53125 C 18.148438 -32.4375 17.070312 -30.925781 16.34375 -29 C 15.613281 -27.070312 15.25 -24.832031 15.25 -22.28125 C 15.25 -19.695312 15.617188 -17.453125 16.359375 -15.546875 C 17.109375 -13.640625 18.191406 -12.179688 19.609375 -11.171875 C 21.035156 -10.160156 22.757812 -9.65625 24.78125 -9.65625 Z M 24.78125 -9.65625 "/></g></g></g><g fill="#3382f6" fill-opacity="1"><g transform="translate(490.345045, 79.574347)"><g><path d="M 24.875 0.875 C 20.375 0.875 16.492188 -0.0507812 13.234375 -1.90625 C 9.972656 -3.769531 7.457031 -6.40625 5.6875 -9.8125 C 3.914062 -13.21875 3.03125 -17.222656 3.03125 -21.828125 C 3.03125 -26.378906 3.90625 -30.363281 5.65625 -33.78125 C 7.414062 -37.207031 9.894531 -39.882812 13.09375 -41.8125 C 16.289062 -43.738281 20.03125 -44.703125 24.3125 -44.703125 C 27.257812 -44.703125 30 -44.222656 32.53125 -43.265625 C 35.0625 -42.304688 37.273438 -40.890625 39.171875 -39.015625 C 41.078125 -37.140625 42.554688 -34.796875 43.609375 -31.984375 C 44.660156 -29.179688 45.1875 -25.945312 45.1875 -22.28125 L 45.1875 -18.953125 L 7.78125 -18.953125 L 7.78125 -26.46875 L 39.390625 -26.46875 L 33.84375 -24.515625 C 33.84375 -26.796875 33.484375 -28.773438 32.765625 -30.453125 C 32.046875 -32.128906 30.988281 -33.425781 29.59375 -34.34375 C 28.195312 -35.257812 26.472656 -35.71875 24.421875 -35.71875 C 22.378906 -35.71875 20.640625 -35.253906 19.203125 -34.328125 C 17.765625 -33.398438 16.664062 -32.125 15.90625 -30.5 C 15.144531 -28.875 14.765625 -27.007812 14.765625 -24.90625 L 14.765625 -19.640625 C 14.765625 -17.160156 15.191406 -15.054688 16.046875 -13.328125 C 16.898438 -11.597656 18.101562 -10.285156 19.65625 -9.390625 C 21.21875 -8.503906 23.035156 -8.0625 25.109375 -8.0625 C 26.515625 -8.0625 27.796875 -8.265625 28.953125 -8.671875 C 30.117188 -9.085938 31.101562 -9.6875 31.90625 -10.46875 C 32.71875 -11.257812 33.335938 -12.226562 33.765625 -13.375 L 44.59375 -11.8125 C 43.894531 -9.257812 42.644531 -7.03125 40.84375 -5.125 C 39.050781 -3.226562 36.804688 -1.753906 34.109375 -0.703125 C 31.410156 0.347656 28.332031 0.875 24.875 0.875 Z M 24.875 0.875 "/></g></g></g><g fill="#3382f6" fill-opacity="1"><g transform="translate(538.406934, 79.574347)"><g><path d="M 22.546875 0.921875 C 18.960938 0.921875 15.78125 0.394531 13 -0.65625 C 10.21875 -1.707031 7.953125 -3.226562 6.203125 -5.21875 C 4.460938 -7.21875 3.363281 -9.617188 2.90625 -12.421875 L 14.125 -13.9375 C 14.632812 -11.90625 15.609375 -10.367188 17.046875 -9.328125 C 18.484375 -8.296875 20.398438 -7.78125 22.796875 -7.78125 C 25.054688 -7.78125 26.835938 -8.210938 28.140625 -9.078125 C 29.441406 -9.941406 30.09375 -11.039062 30.09375 -12.375 C 30.09375 -13.519531 29.617188 -14.457031 28.671875 -15.1875 C 27.734375 -15.914062 26.316406 -16.484375 24.421875 -16.890625 L 16.8125 -18.40625 C 12.550781 -19.28125 9.351562 -20.769531 7.21875 -22.875 C 5.09375 -24.976562 4.03125 -27.691406 4.03125 -31.015625 C 4.03125 -33.804688 4.796875 -36.226562 6.328125 -38.28125 C 7.859375 -40.332031 10.015625 -41.914062 12.796875 -43.03125 C 15.578125 -44.144531 18.828125 -44.703125 22.546875 -44.703125 C 26.117188 -44.703125 29.207031 -44.195312 31.8125 -43.1875 C 34.414062 -42.175781 36.507812 -40.738281 38.09375 -38.875 C 39.675781 -37.007812 40.679688 -34.816406 41.109375 -32.296875 L 30.453125 -30.8125 C 30.078125 -32.382812 29.242188 -33.671875 27.953125 -34.671875 C 26.671875 -35.671875 24.953125 -36.171875 22.796875 -36.171875 C 20.796875 -36.171875 19.148438 -35.75 17.859375 -34.90625 C 16.566406 -34.070312 15.921875 -32.988281 15.921875 -31.65625 C 15.921875 -30.539062 16.359375 -29.601562 17.234375 -28.84375 C 18.117188 -28.082031 19.5625 -27.503906 21.5625 -27.109375 L 29.53125 -25.5 C 33.84375 -24.65625 37.039062 -23.25 39.125 -21.28125 C 41.21875 -19.3125 42.265625 -16.742188 42.265625 -13.578125 C 42.265625 -10.671875 41.425781 -8.132812 39.75 -5.96875 C 38.082031 -3.800781 35.765625 -2.109375 32.796875 -0.890625 C 29.828125 0.316406 26.410156 0.921875 22.546875 0.921875 Z M 22.546875 0.921875 "/></g></g></g><g clip-path="url(#f10e049e84)"><g fill="#3382f6" fill-opacity="1"><g transform="translate(583.474934, 79.574347)"><g><path d="M 38.921875 0 L 38.921875 9.1875 L 0 9.1875 L 0 0 Z M 38.921875 0 "/></g></g></g></g></g></g></svg>